<svg width="233" height="55" viewBox="0 0 233 55" fill="none" xmlns="http://www.w3.org/2000/svg">
<path d="M49.7339 20.5471C49.7339 17.6818 50.132 16.0851 50.2457 13.3073H50.3463V9.96078C50.3463 5.0132 48.4084 4.09017 42.4984 4.09017C38.7364 4.09017 37.1222 4.62824 33.7888 4.62824C31.9646 4.62824 30.0267 3.44275 29.9217 0H24.5454C24.4361 3.43837 22.5025 4.62824 20.674 4.62824C17.3406 4.62824 15.7264 4.09017 11.9643 4.09017C6.22056 4.09017 4.23891 6.12432 4.12954 10.7744C4.1033 11.1069 4.09017 11.4612 4.09017 11.8374C4.09017 12.3449 4.09892 12.813 4.11642 13.2504V13.3073C4.23016 16.0851 4.62824 17.6818 4.62824 20.5471C4.62824 22.3713 3.44275 24.3092 0 24.4142V29.8342C3.43837 29.9392 4.62824 31.8771 4.62824 33.7013C4.62824 36.5841 4.22578 38.1808 4.11642 40.9892V40.998C4.09892 41.4354 4.09017 41.9035 4.09017 42.4109C4.09017 42.7828 4.1033 43.1284 4.12517 43.4565C4.21704 48.1547 6.19432 50.2063 11.9643 50.2063C15.7264 50.2063 17.3406 49.6683 20.674 49.6683C22.5025 49.6683 24.4361 50.8538 24.5454 54.2965H29.9217C30.0267 50.8581 31.9646 49.6683 33.7888 49.6683C37.1222 49.6683 38.7364 50.2063 42.4984 50.2063C48.4128 50.2063 50.3463 49.2833 50.3463 44.3357V40.9892H50.2457C50.1363 38.1808 49.7339 36.5841 49.7339 33.7013C49.7339 31.8771 50.9194 29.9392 54.3621 29.8342V24.4142C50.9238 24.3092 49.7339 22.3713 49.7339 20.5471ZM48.1678 27.1483V27.2532C45.3156 27.9007 43.872 29.4011 43.872 33.7013C43.872 36.8203 45.3987 38.0014 45.3987 41.9254C45.3987 42.2841 45.3506 42.6341 45.2675 42.9796C44.9044 43.7496 44.047 44.0164 42.1791 44.0164C39.4363 44.0164 36.9078 43.8064 33.7931 43.8064C29.493 43.8064 27.9882 45.2544 27.3451 48.1022H27.1264C26.4833 45.25 24.9785 43.8064 20.6783 43.8064C17.5593 43.8064 15.0352 44.0164 12.2924 44.0164C9.73768 44.0164 9.06838 43.5177 8.97651 41.9123C8.97651 38.0014 10.5032 36.8159 10.5032 33.7013C10.5032 29.4011 9.05525 27.8963 6.20744 27.2532V26.9908C9.05963 26.3433 10.5032 24.8429 10.5032 20.5427C10.5032 17.4368 8.99401 16.2513 8.98089 12.3668C9.07712 10.7701 9.74643 10.2757 12.2968 10.2757C15.0396 10.2757 17.5681 10.4857 20.6827 10.4857C24.9829 10.4857 26.4877 9.03775 27.1308 6.18994H27.3495C27.9969 9.04213 29.4974 10.4857 33.7975 10.4857C36.9166 10.4857 39.4407 10.2757 42.1835 10.2757C44.0776 10.2757 44.935 10.547 45.2894 11.3431C45.3594 11.6625 45.4031 11.9862 45.4031 12.3143C45.4031 16.2382 43.8764 17.4193 43.8764 20.5384C43.8764 24.8385 45.3244 26.3433 48.1722 26.9864V27.1395L48.1678 27.1483ZM20.6521 24.4448L16.4351 20.2278L20.2584 16.4044L24.4754 20.6215V14.659H29.8867V20.6215L34.1037 16.4044L37.9271 20.2278L33.71 24.4448H39.6725V29.8517H33.71L37.9271 34.0687L34.1037 37.8921L29.8867 33.675V39.6375H24.4754V33.675L20.2584 37.8921L16.4351 34.0687L20.6521 29.8517H14.6896V24.4404H20.6521V24.4448Z" fill="white"/>
<path d="M67.9716 30.8535C67.9716 25.0835 72.1274 20.6346 78.0374 20.6346C80.8546 20.6346 83.4137 21.6888 85.1766 23.5393L82.5081 26.2077C81.4976 24.9654 79.8965 24.2042 78.0549 24.2042C74.3759 24.2042 71.9612 27.1001 71.9612 30.8666C71.9612 34.633 74.5203 37.5158 78.1336 37.5158C79.9403 37.5158 81.5851 36.7328 82.5956 35.4598L85.2641 38.1283C83.5099 39.9875 80.9202 41.0461 78.068 41.0461C72.0487 41.0461 67.9585 36.5841 67.9585 30.871L67.9672 30.8622L67.9716 30.8535Z" fill="white"/>
<path d="M99.5249 37.0871H95.2379C94.2711 37.0871 93.7462 36.5316 93.7462 35.4861V13.8322H85.334V17.03H89.8485V35.7179C89.8485 38.767 91.5239 40.5518 94.4505 40.5518H99.5205V37.0915L99.5249 37.0871Z" fill="white"/>
<path d="M102.867 30.8841C102.867 24.7116 107.023 20.6302 112.522 20.6302C118.615 20.6302 122.076 25.0922 122.076 30.6303V32.0783H106.76C106.9 35.4642 109.175 37.7608 112.701 37.7608C115.16 37.7608 117.316 36.5753 118.09 34.6811H121.888C120.842 38.4345 117.426 41.0373 112.635 41.0373C106.8 41.0373 102.863 36.7284 102.863 30.8928V30.8841H102.867ZM118.169 29.0686C117.907 25.7921 115.566 23.898 112.522 23.898C109.477 23.898 107.132 26.0196 106.839 29.0686H118.169Z" fill="white"/>
<path d="M126.428 30.8841C126.428 24.8647 130.26 20.6302 135.645 20.6302C139.399 20.6302 141.415 22.9356 142.032 23.9373H142.26V21.1201H146.166V40.5561H142.369V37.8045H142.106C141.617 38.5438 139.722 41.0373 135.86 41.0373C130.287 41.0373 126.424 36.9121 126.424 30.8928V30.8841H126.428ZM142.373 30.8534C142.373 26.6539 139.814 24.191 136.354 24.191C132.894 24.191 130.413 26.9426 130.413 30.8534C130.413 34.7643 132.828 37.5027 136.433 37.5027C140.037 37.5027 142.373 34.5324 142.373 30.8534Z" fill="white"/>
<path d="M160.637 30.9628V37.0915H168.852V40.5517H152.277V37.0915H156.739V24.7729H152.242V21.1158H160.493V24.5016H160.755C161.354 22.9443 163.17 21.0851 165.956 21.0851H169.263V24.786H165.847C162.225 24.786 160.646 27.367 160.646 30.9672H160.637V30.9628Z" fill="white"/>
<path d="M179.701 24.7685H175.152V21.1114H179.732V20.3809C179.732 16.3301 182.562 13.8847 186.643 13.8847H188.691V17.1918H186.862C184.522 17.1918 183.555 18.5611 183.555 20.499V21.107H192.383L190.121 24.7641H183.603V40.543H179.697V24.7641H179.705L179.701 24.7685Z" fill="white"/>
<path d="M210.078 37.0871L207.475 40.5474H195.034V37.0871H199.898V24.7685H195.384L197.645 21.1114H203.796V37.0871H210.078ZM199.303 15.5733C199.303 14.1603 200.379 13.1235 201.871 13.1235C203.363 13.1235 204.43 14.169 204.43 15.5733C204.43 17.065 203.385 18.0667 201.871 18.0667C200.357 18.0667 199.303 17.065 199.303 15.5733Z" fill="white"/>
<path d="M233 40.5518L225.577 30.6785L232.48 21.5051H227.55L223.118 27.402L218.678 21.5051H213.748L220.647 30.6785L213.236 40.5518H218.166L223.118 33.955L228.07 40.5518H233Z" fill="white"/>
</svg>
