<svg width="32" height="32" viewBox="0 0 32 32" fill="none" xmlns="http://www.w3.org/2000/svg">
<g clip-path="url(#clip0_253_9182)">
<path d="M27.9679 12.528C27.9679 11.024 28.1759 10.176 28.2399 8.72H28.2879V6.96C28.2879 4.352 27.2639 3.872 24.1279 3.872C22.1279 3.872 21.2799 4.16 19.5039 4.16C18.5279 4.16 17.5039 3.536 17.4559 1.728H14.6079C14.5439 3.536 13.5199 4.16 12.5599 4.16C10.7839 4.16 9.93587 3.872 7.93587 3.872C4.87987 3.872 3.83987 4.944 3.77587 7.392C3.77587 7.568 3.75987 7.76 3.75987 7.952C3.75987 8.224 3.75987 8.464 3.75987 8.688V8.72C3.82387 10.176 4.03187 11.024 4.03187 12.528C4.03187 13.488 3.40787 14.512 1.56787 14.56V17.408C3.39187 17.456 4.03187 18.48 4.03187 19.44C4.03187 20.96 3.82387 21.792 3.75987 23.28C3.75987 23.52 3.75987 23.76 3.75987 24.032C3.75987 24.224 3.75987 24.416 3.77587 24.576C3.82387 27.056 4.87987 28.128 7.93587 28.128C9.93587 28.128 10.7839 27.84 12.5599 27.84C13.5359 27.84 14.5599 28.464 14.6079 30.272H17.4559C17.5039 28.464 18.5439 27.84 19.5039 27.84C21.2799 27.84 22.1279 28.128 24.1279 28.128C27.2639 28.128 28.2879 27.648 28.2879 25.04V23.28H28.2399C28.1759 21.808 27.9679 20.96 27.9679 19.44C27.9679 18.48 28.5919 17.456 30.4319 17.408V14.56C28.6079 14.512 27.9679 13.488 27.9679 12.528ZM27.1359 16V16.048C25.6159 16.384 24.8479 17.184 24.8479 19.44C24.8479 21.088 25.6639 21.696 25.6639 23.776C25.6639 23.968 25.6319 24.144 25.5999 24.336C25.4079 24.736 24.9599 24.88 23.9679 24.88C22.5119 24.88 21.1679 24.768 19.5199 24.768C17.2319 24.768 16.4319 25.536 16.0959 27.024H15.9839C15.6479 25.52 14.8479 24.768 12.5599 24.768C10.9119 24.768 9.56787 24.88 8.11187 24.88C6.75187 24.88 6.39987 24.624 6.35187 23.776C6.35187 21.712 7.16787 21.088 7.16787 19.456C7.16787 17.2 6.39987 16.4 4.87987 16.064V15.92C6.39987 15.584 7.16787 14.784 7.16787 12.528C7.16787 10.896 6.36787 10.272 6.35187 8.224C6.39987 7.376 6.75187 7.12 8.11187 7.12C9.56787 7.12 10.9119 7.232 12.5599 7.232C14.8479 7.232 15.6479 6.464 15.9839 4.976H16.0959C16.4319 6.48 17.2319 7.232 19.5199 7.232C21.1679 7.232 22.5119 7.12 23.9679 7.12C24.9759 7.12 25.4239 7.264 25.6159 7.68C25.6479 7.856 25.6799 8.016 25.6799 8.192C25.6799 10.256 24.8639 10.88 24.8639 12.528C24.8639 14.784 25.6319 15.584 27.1519 15.92V16H27.1359ZM12.5279 14.576L10.2879 12.352L12.3199 10.336L14.5599 12.56V9.424H17.4399V12.56L19.6799 10.336L21.7119 12.352L19.4719 14.576H22.6399V17.424H19.4719L21.7119 19.648L19.6799 21.664L17.4399 19.44V22.576H14.5599V19.44L12.3199 21.664L10.2879 19.648L12.5279 17.424H9.35987V14.576H12.5279Z" fill="white" fill-opacity="0.02"/>
</g>
<defs>
<clipPath id="clip0_253_9182">
<rect width="32" height="32" fill="white"/>
</clipPath>
</defs>
</svg>
