<svg width="166" height="28" viewBox="0 0 166 28" fill="none" xmlns="http://www.w3.org/2000/svg">
<path d="M0.971619 17.7299C0.971619 11.9599 5.12741 7.51099 11.0374 7.51099C13.8546 7.51099 16.4137 8.56524 18.1766 10.4157L15.5081 13.0841C14.4976 11.8418 12.8965 11.0806 11.0549 11.0806C7.37591 11.0806 4.96118 13.9765 4.96118 17.743C4.96118 21.5094 7.52027 24.3923 11.1336 24.3923C12.9403 24.3923 14.5851 23.6092 15.5956 22.3362L18.2641 25.0047C16.5099 26.8639 13.9202 27.9225 11.068 27.9225C5.04867 27.9225 0.958496 23.4605 0.958496 17.7474L0.96724 17.7386L0.971619 17.7299Z" fill="white"/>
<path d="M32.5249 23.9636H28.2379C27.2711 23.9636 26.7462 23.408 26.7462 22.3625V0.708618H18.334V3.90639H22.8485V22.5943C22.8485 25.6434 24.5239 27.4282 27.4505 27.4282H32.5205V23.9679L32.5249 23.9636Z" fill="white"/>
<path d="M35.8672 17.7606C35.8672 11.5881 40.023 7.50671 45.5217 7.50671C51.6154 7.50671 55.0757 11.9687 55.0757 17.5069V18.9548H39.7605C39.9005 22.3407 42.1752 24.6373 45.7011 24.6373C48.1596 24.6373 50.3162 23.4518 51.0905 21.5577H54.8876C53.8421 25.311 50.4256 27.9138 45.6355 27.9138C39.7999 27.9138 35.8628 23.6049 35.8628 17.7693V17.7606H35.8672ZM51.1692 15.9452C50.9068 12.6686 48.5664 10.7745 45.5217 10.7745C42.4771 10.7745 40.1323 12.8961 39.8392 15.9452H51.1692Z" fill="white"/>
<path d="M59.4282 17.7606C59.4282 11.7412 63.2603 7.50671 68.6453 7.50671C72.3986 7.50671 74.4153 9.81209 75.0321 10.8139H75.2596V7.99666H79.166V27.4326H75.369V24.6811H75.1065C74.6165 25.4204 72.7224 27.9138 68.8597 27.9138C63.2865 27.9138 59.4238 23.7887 59.4238 17.7693V17.7606H59.4282ZM75.3733 17.73C75.3733 13.5304 72.8142 11.0676 69.354 11.0676C65.8937 11.0676 63.4134 13.8191 63.4134 17.73C63.4134 21.6408 65.8281 24.3792 69.4327 24.3792C73.0373 24.3792 75.3733 21.4089 75.3733 17.73Z" fill="white"/>
<path d="M93.6369 17.8393V23.968H101.852V27.4283H85.2772V23.968H89.7392V11.6494H85.2422V7.99229H93.4925V11.3782H93.755C94.3543 9.82084 96.1697 7.96167 98.9563 7.96167H102.263V11.6625H98.8469C95.2248 11.6625 93.6456 14.2435 93.6456 17.8437H93.6369V17.8393Z" fill="white"/>
<path d="M112.701 11.6449H108.152V7.98781H112.732V7.25727C112.732 3.20646 115.562 0.761108 119.643 0.761108H121.691V4.06824H119.862C117.522 4.06824 116.555 5.43747 116.555 7.37538V7.98344H125.383L123.121 11.6405H116.603V27.4194H112.697V11.6405H112.705L112.701 11.6449Z" fill="white"/>
<path d="M143.078 23.9636L140.475 27.4239H128.034V23.9636H132.898V11.645H128.384L130.645 7.98787H136.796V23.9636H143.078ZM132.303 2.44973C132.303 1.03676 133.379 0 134.871 0C136.363 0 137.43 1.04551 137.43 2.44973C137.43 3.94144 136.385 4.9432 134.871 4.9432C133.357 4.9432 132.303 3.94144 132.303 2.44973Z" fill="white"/>
<path d="M166 27.4282L158.577 17.555L165.48 8.38159H160.55L156.118 14.2784L151.678 8.38159H146.748L153.647 17.555L146.236 27.4282H151.166L156.118 20.8315L161.07 27.4282H166Z" fill="white"/>
</svg>
