<svg width="100" height="100" viewBox="0 0 100 100" fill="none" xmlns="http://www.w3.org/2000/svg">
<path d="M58.1086 49.9488C63.6053 49.9488 68.0612 45.4929 68.0612 39.9962C68.0612 34.4996 63.6053 30.0436 58.1086 30.0436C52.6119 30.0436 48.156 34.4996 48.156 39.9962C48.156 45.4929 52.6119 49.9488 58.1086 49.9488Z" fill="#FF214F" stroke="#64BED3" stroke-width="2" stroke-linecap="round" stroke-linejoin="round"/>
<path d="M73.9874 38.4953C73.9874 25.6778 63.7251 15.2607 50.9732 15.0046C37.7924 14.7425 27 25.791 27 38.9777V57.4773C27 57.4773 27.0119 57.5011 27.0238 57.5011H35.7495C35.7495 57.5011 35.7733 57.513 35.7733 57.5249V71.2775C35.7733 73.8624 37.8698 75.959 40.4548 75.959H48.0011L47.9475 84.5774L71.4799 72.5581C73.0225 71.7719 73.9934 70.1816 73.9934 68.4484L73.9696 38.9777V37.3815" stroke="#64BED3" stroke-width="2" stroke-linecap="round" stroke-linejoin="round"/>
<path d="M58.1086 48.7219C59.9967 48.7219 61.5274 44.8153 61.5274 39.9962C61.5274 35.1772 59.9967 31.2706 58.1086 31.2706C56.2205 31.2706 54.6898 35.1772 54.6898 39.9962C54.6898 44.8153 56.2205 48.7219 58.1086 48.7219Z" stroke="#64BED3" stroke-width="2" stroke-linecap="round" stroke-linejoin="round"/>
<path d="M58.1086 43.415C62.9276 43.415 66.8342 41.8844 66.8342 39.9962C66.8342 38.1081 62.9276 36.5775 58.1086 36.5775C53.2895 36.5775 49.3829 38.1081 49.3829 39.9962C49.3829 41.8844 53.2895 43.415 58.1086 43.415Z" stroke="#64BED3" stroke-width="2" stroke-linecap="round" stroke-linejoin="round"/>
<path d="M42.9027 31.2587C45.1165 31.2587 46.9112 29.4641 46.9112 27.2503C46.9112 25.0365 45.1165 23.2418 42.9027 23.2418C40.6889 23.2418 38.8943 25.0365 38.8943 27.2503C38.8943 29.4641 40.6889 31.2587 42.9027 31.2587Z" fill="#FF214F" stroke="#64BED3" stroke-width="2" stroke-linecap="round" stroke-linejoin="round"/>
<path d="M35.0109 47.5724H41.1635" stroke="#64BED3" stroke-width="2" stroke-linecap="round" stroke-linejoin="round"/>
</svg>
