<svg width="100" height="100" viewBox="0 0 100 100" fill="none" xmlns="http://www.w3.org/2000/svg">
<path d="M50.4967 18C63.475 18 73.9934 28.5184 73.9934 41.4967C73.9934 53.528 62.1229 60.979 62.1229 74.3802H38.8704C38.8704 60.985 27 52.9621 27 41.4967C27 31.8181 32.8489 23.5094 41.2052 19.9059C41.2052 19.9059 45.3983 18 50.4967 18Z" stroke="#64BED3" stroke-width="2" stroke-linecap="round" stroke-linejoin="round"/>
<path d="M62.6173 28.8341C62.8258 29.0307 63.0223 29.2332 63.2189 29.4416C64.0527 30.3231 64.7972 31.294 65.4405 32.3303C66.1195 33.4322 66.6794 34.6174 67.1022 35.8682C67.7038 37.6372 68.0254 39.5253 68.0254 41.4967" stroke="#64BED3" stroke-width="2" stroke-linecap="round" stroke-linejoin="round"/>
<path d="M32.9561 41.4967C32.9561 39.0845 33.4504 36.7497 34.3557 34.6174C35.4278 32.104 37.0777 29.8585 39.1801 28.0836" stroke="#64BED3" stroke-width="2" stroke-linecap="round" stroke-linejoin="round"/>
<path d="M44.207 68.4181C43.4327 64.7194 42.0152 61.4376 40.4309 58.4238C39.5553 56.7502 38.6262 55.154 37.7328 53.6173C36.6369 51.7292 35.6005 49.9543 34.7786 48.2271" stroke="#64BED3" stroke-width="2" stroke-linecap="round" stroke-linejoin="round"/>
<path d="M59.5678 34.3018C57.4415 31.6275 54.1656 29.9121 50.4967 29.9121C48.2751 29.9121 46.1905 30.7341 46.0296 30.7996L45.9224 30.8472C41.6638 32.6817 38.9181 36.8629 38.9181 41.4967C38.9181 43.3907 40.1748 45.8804 41.8127 48.7512C42.1582 49.3587 42.5215 49.9841 42.8967 50.6273C43.8378 52.2474 44.8265 53.9449 45.7735 55.7555C46.0594 56.3035 46.7503 57.7865 47.1732 59.4006" stroke="#64BED3" stroke-width="2" stroke-linecap="round" stroke-linejoin="round"/>
<path d="M48.0429 47.6374C48.8529 49.0252 46.3811 44.4092 50.5385 52.0449C55.1901 60.979 49.6748 64.2072 50.4968 68.4181" stroke="#64BED3" stroke-width="2" stroke-linecap="round" stroke-linejoin="round"/>
<path d="M56.8936 41.4967C57.1794 42.0625 58.9722 45.2967 61.6346 50.127C61.6346 50.127 62.9092 52.3189 62.9092 55.5768" stroke="#64BED3" stroke-width="2" stroke-linecap="round" stroke-linejoin="round"/>
<path d="M44.8682 41.4073C44.9039 39.1857 46.2321 37.1964 48.275 36.3149L48.2989 36.303C48.6443 36.1779 49.6568 35.8622 50.4907 35.8622C52.0393 35.8622 53.4509 36.4936 54.4693 37.5121" stroke="#64BED3" stroke-width="2" stroke-linecap="round" stroke-linejoin="round"/>
<path d="M39.9604 74.3742V77.6262C39.9604 80.1159 44.2786 82.135 44.2786 82.135V84.6723C44.2786 86.2744 45.577 87.5729 47.1792 87.5729H53.8083C55.4105 87.5729 56.7089 86.2744 56.7089 84.6723V82.135C56.7089 82.135 61.0271 80.1159 61.0271 77.6262V74.3742H39.9604Z" fill="#FF214F" stroke="#64BED3" stroke-width="2" stroke-linecap="round" stroke-linejoin="round"/>
<path d="M50.4967 41.4967C50.4967 41.4967 56.5421 51.759 57.3879 54.0223C59.3712 57.2803 56.7863 64.3918 56.2384 66.1251C56.2384 66.1251 55.8691 67.4175 55.7261 68.4241" stroke="#64BED3" stroke-width="2" stroke-linecap="round" stroke-linejoin="round"/>
<path d="M62.9092 41.4967C62.9092 41.4967 65.8813 46.6427 66.2327 47.5004" stroke="#64BED3" stroke-width="2" stroke-linecap="round" stroke-linejoin="round"/>
<path d="M43.5638 25.3796L43.677 25.3319C43.677 25.3319 46.8397 23.962 50.4967 23.962C52.2001 23.962 53.844 24.2062 55.3986 24.6589" stroke="#64BED3" stroke-width="2" stroke-linecap="round" stroke-linejoin="round"/>
</svg>
