<svg width="100" height="100" viewBox="0 0 100 100" fill="none" xmlns="http://www.w3.org/2000/svg">
<path d="M67.3292 62.9708L72.9874 85.8481L56.8584 70.0109" fill="#FF214F"/>
<path d="M67.3292 62.9708L72.9874 85.8481L56.8584 70.0109" stroke="#64BED3" stroke-width="2" stroke-linecap="round" stroke-linejoin="round"/>
<path d="M42.129 70.0109L26 85.8481L31.6583 62.9708" fill="#FF214F"/>
<path d="M42.129 70.0109L26 85.8481L31.6583 62.9708" stroke="#64BED3" stroke-width="2" stroke-linecap="round" stroke-linejoin="round"/>
<path d="M65.5006 30.4209C70.1046 34.6914 72.9874 40.7964 72.9874 47.5744C72.9874 60.499 62.5107 70.9758 49.586 70.9758C36.6613 70.9758 26.1906 60.499 26.1906 47.5744C26.1906 34.6497 36.6673 24.173 49.586 24.173C52.5878 24.173 55.4646 24.7388 58.1032 25.7692" stroke="#64BED3" stroke-width="2" stroke-linecap="round" stroke-linejoin="round"/>
<path d="M62.2606 35.5967C65.2148 38.7237 67.0314 42.9406 67.0314 47.5744C67.0314 57.1934 59.2051 65.0197 49.5861 65.0197C39.967 65.0197 32.1407 57.1934 32.1407 47.5744C32.1407 37.9553 39.967 30.1291 49.5861 30.1291C51.3729 30.1291 53.1002 30.3971 54.7202 30.8974" stroke="#64BED3" stroke-width="2" stroke-linecap="round" stroke-linejoin="round"/>
<path d="M58.9371 40.9095C60.2832 42.7916 61.0753 45.0907 61.0753 47.5803C61.0753 53.9116 55.9233 59.0696 49.5861 59.0696C43.2488 59.0696 38.0968 53.9176 38.0968 47.5803C38.0968 41.2431 43.2488 36.0911 49.5861 36.0911C50.1995 36.0911 50.8011 36.1387 51.3848 36.234" stroke="#64BED3" stroke-width="2" stroke-linecap="round" stroke-linejoin="round"/>
<path d="M55.0895 47.0085C55.1073 47.1932 55.1192 47.3838 55.1192 47.5743C55.1192 50.6239 52.6355 53.1075 49.586 53.1075C46.5365 53.1075 44.0529 50.6239 44.0529 47.5743C44.0529 45.2872 45.4466 43.3217 47.4359 42.476" stroke="#64BED3" stroke-width="2" stroke-linecap="round" stroke-linejoin="round"/>
<path d="M49.2822 47.4374L66.0307 21.6476" stroke="#64BED3" stroke-width="2" stroke-linecap="round" stroke-linejoin="round"/>
<path d="M73.3687 19.5927L66.5073 20.8673L65.2327 14" stroke="#64BED3" stroke-width="2" stroke-linecap="round" stroke-linejoin="round"/>
<path d="M69.6222 25.245L62.7548 26.5137L61.4862 19.6463" stroke="#64BED3" stroke-width="2" stroke-linecap="round" stroke-linejoin="round"/>
</svg>
