<?xml version="1.0" encoding="UTF-8"?>
<svg width="200px" height="200.125977px" viewBox="0 0 200 200.125977" version="1.1" xmlns="http://www.w3.org/2000/svg" xmlns:xlink="http://www.w3.org/1999/xlink">
    <title>icon-fluidity</title>
    <g id="Page-1" stroke="none" stroke-width="1" fill="none" fill-rule="evenodd">
        <g id="icons" fill-rule="nonzero">
            <g id="icon-fluidity">
                <polygon id="b-copy-2" fill="#040404" points="60.1611328 0.125976562 200 0.125976562 200 200.125977 0 200.125977 0 0.125976562 30.3037109 0 30 170.125977 170 170.125977 170 30.1259766 60.1611328 30.1259766"></polygon>
                <path d="M99.5,57 C99.5,57 64,85.0575 64,108.65625 C64,128.176875 79.8930769,144 99.5,144 C119.106923,144 135,128.176875 135,108.65625 C135,85.0575 99.5,57 99.5,57 Z M83.4088099,111.365169 C84.7140707,120.495819 93.1438805,126.601255 101.900005,125.336164 C103.531582,125.116149 105,126.381239 105,128.031356 C105,129.571466 103.912283,130.616541 102.715793,130.781553 C90.5877446,132.486674 79.7649566,124.01607 78.0246088,112.135223 C77.8070653,110.485106 79.0579403,109 80.7439023,109 C82.103549,109 83.2456523,109.990071 83.4088099,111.365169 Z" id="Shape" fill="#99C2EA"></path>
            </g>
        </g>
    </g>
</svg>