<?xml version="1.0" encoding="UTF-8"?>
<svg width="200px" height="201px" viewBox="0 0 200 201" version="1.1" xmlns="http://www.w3.org/2000/svg" xmlns:xlink="http://www.w3.org/1999/xlink">
    <title>Group</title>
    <g id="Page-1" stroke="none" stroke-width="1" fill="none" fill-rule="evenodd">
        <g id="Group">
            <polygon id="Rectangle" fill="#040404" fill-rule="nonzero" points="60.1611328 0.125976562 200 0.125976562 200 200.125977 0 200.125977 0 0.125976562 30.3037109 0 30 170.125977 170 170.125977 170 30.1259766 60.1611328 30.1259766"></polygon>
            <g id="icon-bloqs" transform="translate(52.000000, 54.000000)">
                <polygon id="Path" points="0 0 95 0 95 95 0 95"></polygon>
                <path d="M11,74 L35,74 L35,46.5 L11,46.5 L11,74 Z M39,74 L87,74 L87,46.5 L39,46.5 L39,74 Z M11,19 L11,42.5714286 L87,42.5714286 L87,19 L11,19 Z" id="Shape" fill="#99C2EA" fill-rule="nonzero"></path>
            </g>
        </g>
    </g>
</svg>