<?xml version="1.0" encoding="UTF-8"?>
<svg id="Layer_2" data-name="Layer 2" xmlns="http://www.w3.org/2000/svg" viewBox="0 0 1122.43 1297.84">
  <defs>
    <style>
      .cls-1 {
        fill: #65bed3;
      }

      .cls-1, .cls-2, .cls-3 {
        stroke-width: 0px;
      }

      .cls-2 {
        fill: #ee2e53;
      }

      .cls-3 {
        fill: #e21f4d;
      }
    </style>
  </defs>
  <g id="Layer_1-2" data-name="Layer 1">
    <g>
      <g id="ld4Fgu">
        <g>
          <path class="cls-3" d="M552.67,988.24c0-36.83-.11-73.66.07-110.49.05-11.24-8.75-21.95-21.41-21.1-6.94.46-12.41,3.83-17.84,7.16-55.2,33.82-59.15,115.64-7.58,154.89,5.16,3.93,10.53,7.58,15.65,11.56,2.53,1.96,4.6,4.34,3.52,8.11-.99,3.45-3.31,5.24-6.58,6.13-2.8.76-4.86-.97-6.85-2.33-19.64-13.42-37.75-28.42-50.37-49.06-2.11-3.45-4.89-5.89-9.37-5.28-4.23.57-6.09,3.38-7.45,7.1-3.99,10.91-7.97,21.84-12.94,32.35-2.42,5.11-6.61,6.9-10.88,4.99-4.22-1.89-5.65-6.26-3.32-11.4,12.05-26.59,20.01-54.63,29.07-82.28,3.2-9.75-1.43-18.92-10.9-22.69-10.19-4.05-20.44-7.97-30.58-12.15-11.4-4.69-22.59-9.84-32.3-17.63-3.93-3.15-4.54-7.44-1.77-10.94,2.86-3.61,7.07-4.16,11.09-1.44,2.34,1.59,4.61,3.29,7.02,4.76,16.62,10.1,35.1,15.95,53.06,22.94,10.9,4.24,18.96.76,24.69-9.45,4.57-8.14,9.88-15.77,16.16-22.72,14.49-16.06,32.5-26.08,53.27-31.68,11.93-3.22,16.57-9.78,16.57-22.16.01-43.33.25-86.66-.12-129.98-.19-22.26-9.21-40.54-27.43-53.89-19.81-14.51-37.91-30.53-52.09-51.04-9.68-14-24.97-20.48-41.81-19.14-25.09,2-41.23,20.54-41.35,45.87-.12,25.31,11.01,45.45,29.86,61.68,2.65,2.28,4.91,4.72,4.57,8.35-.58,6.17-7.56,8.97-12.9,5.04-6.06-4.46-11.06-10.07-15.77-15.91-10.54-13.06-17.77-27.59-20.05-44.43-1.17-8.64-1.41-17.21.03-25.83.93-5.59-.76-10.42-5.32-13.67-4.25-3.02-9.16-3.01-13.69-.42-17.74,10.11-32.49,23.56-44.51,40.06-5.42,7.43-9.74,15.48-13.79,23.7-2.12,4.3-6.18,6.14-9.8,4.75-4.05-1.55-5.78-5.57-4.37-10.39.47-1.59,1.14-3.13,1.83-4.64,3.79-8.38,8.86-16.02,14.19-23.44,8.32-11.61,5.43-24.94-7.2-31.57-7.08-3.72-14.46-6.79-21.89-9.72-18.75-7.38-38.19-12.68-57.21-19.24-28.13-9.69-56.36-10.6-84.57-.56-19.88,7.08-38.69,16.17-54.6,30.45-3.84,3.45-7.77,3.14-11.04-.36-2.73-2.93-2.6-7.45.46-10.86,1.1-1.23,2.46-2.23,3.72-3.3,16.04-13.72,34.75-22.61,54.32-29.93,3.38-1.26,6.23-3.19,8.22-6.18,5.19-7.8,3.32-15.88-5.54-23.05-10.59-8.57-17.92-19.54-23.96-31.54-1.6-3.18-1.34-6.07.84-8.85,2.15-2.75,5.07-2.88,8.16-2.44,3.14.45,4.3,3.12,5.42,5.42,10.26,21.13,27.93,34.33,48.05,44.8,23.74,12.35,49.4,19.65,74.7,27.86,26.27,8.52,52.77,16.47,76.08,32.02,8.63,5.76,17.1,5.13,25.53-.69,11.83-8.18,24.59-14.61,38.19-19.29,18.72-6.45,37.94-9.68,57.8-9.29,15.02.3,25.18-8.21,28.35-22.78,1.45-6.65,3.11-13.28,5.2-19.75,6.94-21.51,18.1-41.02,29.43-60.41,1.38-2.36,3.26-4.73,6.51-4.96,3-.21,5.63.35,7.35,3.16,2.19,3.59,1.39,6.86-.62,10.27-12.76,21.66-25.2,43.48-31.18,68.23-4.06,16.78-3.75,33.25,4.26,49.01,9.89,19.46,26.11,32.96,43.24,45.51,3.03,2.22,6.76,3.36,10.89,2.25,9.57-2.58,13.64-7.93,13.64-18.63,0-70.66,0-141.32-.04-211.97,0-6.48.03-12.93-.79-19.43-3.21-25.53-14.96-46.23-34.62-62.55-9.86-8.19-21.12-13.79-33.46-17.25-3.88-1.09-7.01-3.17-7.82-7.46-.56-2.98,1.02-5.31,3.24-6.87,3.32-2.33,7.01-1.36,10.55-.32,15.06,4.43,28.65,11.7,40.69,21.7,4.64,3.86,9.59,4.84,14.81,2.53,5.63-2.49,7.46-7.59,7.45-13.56-.06-22.16.13-44.33-.11-66.49-.1-9.54-2.36-18.68-6.47-27.44-7.68-16.38-20.98-27.29-35.52-36.89-6.8-4.49-15.03-2.91-20.98,2.83-2.55,2.46-4.4,5.4-5.99,8.54-5.87,11.52-8.65,24.08-11.94,36.43-4.64,17.4-9.98,34.52-17.68,50.82-10.73,22.72-25.39,42.49-44.78,58.58-8.58,7.12-17.7,13.52-27.6,18.74-3.19,1.68-6,1.58-8.72-.88-4.7-4.24-3.71-9.55,2.66-13.24,37.61-21.74,61.54-54.12,74.22-95.26,3.57-11.58-4.09-21.56-16.24-21.46-4.42.04-8.54,1.28-12.66,2.58-17.25,5.45-32.15,15.1-46.27,26.1-4.49,3.5-9.85,3.48-12.94-.26-3.12-3.77-2.04-7.93,2.9-11.83,10.33-8.18,21.38-15.28,33.08-21.29,11.58-5.95,23.66-10.44,36.9-11.33,13.47-.9,24.85-5.89,31.82-18.27,1.8-3.19,3.28-6.56,5.05-9.76,8.54-15.41,24.03-22.28,39.95-17.71,7.72,2.21,13.48,7.73,19.98,12.01,8.92,5.87,21.06.43,21.11-10.11.11-22.46,2.2-45.08-.97-67.37-3.88-27.34-19.35-47.14-44.48-58.53C486.83,1.89,465.15-.53,443.15.09c-10.98.31-19.88,8.28-21.97,19.06-1.47,7.62,3.22,13.42,10.88,14.04,7.11.58,14.26,1.22,21.24,2.61,21.95,4.38,40.77,15.82,59.54,27.25,3.74,2.28,4.91,5.82,2.9,9.94-1.85,3.8-5.98,5.17-10.23,3.37-2.13-.91-4.12-2.17-6.15-3.32-13-7.41-25.84-15.07-40.29-19.56-8.34-2.59-16.87-3.9-25.48-4.34-12.29-.63-22.29,7.47-26.05,19.2-5.25,16.39-5.01,31.19,9.91,42.75,1.97,1.52,4.08,2.87,6.03,4.42,3.47,2.77,4.25,7.12,2.03,10.72-2.07,3.35-6.35,4.77-10.08,2.43-17.55-11.03-30.21-26.79-26.22-50.57,2.19-13.04,7.37-25.19,11.27-37.71,2.61-8.36,1.23-15.9-5.09-22.05-6.43-6.27-14.24-7.66-22.62-4.76-26.07,9.02-50.54,21.25-73.77,36.15-28.63,18.36-53.87,40.6-76.77,65.63-4.2,4.59-4.71,10.5-1.51,15.66,3.08,4.97,8.75,6.9,14.81,4.94,4.74-1.54,9.42-3.25,14.17-4.78,29.83-9.66,55.49-24.85,71.42-53.22,2.31-4.11,6.08-4.91,9.74-2.93,3.82,2.07,5.54,6.2,3.53,10.13-2.18,4.27-4.77,8.38-7.61,12.26-8.54,11.64-19.16,21.16-30.91,29.47-.8.56-1.97.92-1.95,2.06.03,1.56,1.59,1.51,2.58,1.87,5.14,1.86,10.36,3.5,15.06,6.42,18.86,11.71,26.23,29.96,27.98,50.85,1.96,23.33-3.32,45.57-11.88,67.19-8.14,20.57-18.7,40.1-26.05,61-6.87,19.53-12.98,39.21-9.94,60.38,1.79,12.44,7.57,22.34,18.97,28.22,18.43,9.52,38.07,8.59,57.58,5.24,23.19-3.97,42.33-16.26,59.46-31.8,12.94-11.74,25.47-23.92,38.26-35.82,3.89-3.62,8.61-3.41,11.94.21,2.98,3.24,2.67,7.18-1.19,10.91-7.77,7.53-15.68,14.91-23.51,22.38-12.28,11.7-24.96,22.9-38.87,32.7-6.08,4.28-7.9,10.78-7.2,18.04.61,6.29,4.74,10.89,7.81,15.96,8.6,14.19,15.17,29.21,18.91,45.4,1.02,4.39-1.17,8.01-5.28,9.4-3.7,1.25-7.55-.6-9.34-4.65-.67-1.51-1.03-3.16-1.47-4.76-6.34-23.08-17.92-43.2-34.1-60.78-2.48-2.69-4.79-3.59-8.7-2.73-17.03,3.78-34.24,4.7-51.47,1.24-12.83-2.58-24.52-7.58-33.49-17.47-10.27-11.31-13.94-25.25-14.11-40.04-.25-21.76,5.53-42.42,13.07-62.59,7.75-20.73,18.35-40.26,25.93-61.07,8.09-22.2,12.58-44.81,6.77-68.35-3.05-12.33-9.63-22.13-21.6-27.69-11.69-5.43-24-5.45-36.2-3.45-37.93,6.23-71.06,22.57-99.41,48.56-31.37,28.75-49.03,65.36-60.79,105.44-7.04,23.98-11.26,48.5-14.67,73.18-1.19,8.6,1.72,15.96,8.87,20.96,6.79,4.75,14.32,5.24,21.75,1.23,8.36-4.52,16.35-9.69,23.28-16.22,21.22-20.02,30.14-44.5,25.96-73.51-1.56-10.84-5.13-20.94-11.5-30-2.8-3.98-2.03-8.52,1.4-11.16,3.33-2.56,7.3-2.04,10.66,1.51,1.02,1.07,1.85,2.34,2.68,3.58,5.25,7.85,8.26,16.68,10.81,25.66.95,3.35,2.99,5.18,6.27,5.4,3.33.22,5.74-1.49,6.95-4.63,1.32-3.4,2.52-6.85,3.77-10.28,7.25-19.85,12.98-40.18,18.98-60.42,1.56-5.25,5.66-7.57,10.2-6.27,4.37,1.25,6.21,5.01,4.76,10.35-4.19,15.4-8.94,30.63-13.88,45.81-9.82,30.19-21.6,59.45-39.92,85.64-8.78,12.56-8.63,25.01-.73,37.74,7.11,11.45,14.15,22.93,22.54,33.53,11.75,14.87,26.11,25.95,44.33,31.75,14.53,4.62,29.47,6.6,44.65,7.08,5.15.16,10.32-.16,15.45.69,4.82.8,7.6,3.57,7.43,7.74-.19,4.46-3.25,7.34-8.32,7.42-14.32.24-28.56-.68-42.74-2.94-23.8-3.78-45-12.83-62.29-30.01-12.5-12.42-22.01-27.08-31.08-42.02-7.37-12.14-20.53-15.65-32.61-8.25-5.96,3.65-11.95,7.22-18.3,10.16-25.81,11.93-47.11,29.29-62.98,52.94-16.15,24.07-25.16,51.29-33.5,78.7-6.59,21.66-10.59,43.9-12.97,66.42-1.05,9.94-1.58,19.92-1.17,29.91.31,7.59,3.21,14.3,8.31,19.84,12,13.04,27.73,16.03,43.53,7.86,23.52-12.17,47.57-23.19,71.84-33.74,25-10.86,48.54-23.47,64.83-46.44,2.6-3.66,7.05-3.94,10.63-1.42,3.03,2.13,4,6.74,1.97,10.29-.99,1.72-2.34,3.23-3.56,4.81-7.21,9.27-16.45,16.4-25.19,24.1-8.74,7.69-6.19,19.57,4.58,24,7.99,3.29,15.92,6.7,23.61,10.74,24.76,13.05,47.66,29.19,71.94,43.05,28.82,16.45,58.81,29.32,92.23,33.39,21.6,2.63,42.78,1.16,63.9-3.13,23.76-4.82,46.36-13.06,68.05-23.87,2.81-1.4,5.64-1.8,8.48.22,6.12,4.35,4.94,11.02-2.8,14.6-28.64,13.29-58.1,23.91-89.66,27.89-9.82,1.24-15.57,7.47-17.04,17.38-.83,5.55,1.54,10.4,3.34,15.36,5.99,16.52,9.84,33.47,10.12,51.11.09,5.38-2.73,8.77-7.16,9.01-4.39.23-7.52-2.85-7.97-8.34-1.39-16.98-4.88-33.44-10.66-49.52-5.83-16.21-15.88-28.27-31.72-35.27-7.66-3.38-16.02-4.33-23.96-6.82-23.97-7.51-46.28-18.55-67.73-31.46-6.07-3.65-12.4-4.02-18.53-.66-6.03,3.31-8.83,8.68-8.49,15.76,1.03,21.86,4.88,43.2,11.21,64.12,9.41,31.1,24.31,59.34,44.36,84.85,15.1,19.21,32.86,35.73,52.32,50.45,4.47,3.38,5.72,8.47,3.07,12-2.79,3.73-7.73,4.12-12.46.37-8.34-6.6-16.73-13.19-24.58-20.35-17.64-16.12-32.89-34.31-45.97-54.34-9.07-13.89-25.27-17.74-39.23-8.9-14.09,8.92-26.74,19.85-38.34,31.78-10.91,11.22-20.48,23.6-28.71,36.99-2.9,4.73-7.03,5.63-11.03,3.01-3.86-2.52-4.74-6.94-1.99-11.38,7.2-11.6,14.8-22.98,24.5-32.64,9.99-9.95,8.29-23.28-3.7-31.14-22.54-14.77-47.37-23.95-72.91-31.68-17.2-5.2-34.78-8.86-52.16-13.33-5.51-1.42-7.97-5.2-6.84-9.26,1.45-5.17,4.86-6.98,10.9-5.64,20.12,4.47,40.16,9.27,59.82,15.53,10.2,3.24,20.29-1.59,23.35-11.28,1.9-6.01.2-11.81-1.88-17.53-5.31-14.59-11.91-28.53-20.32-41.61-2.02-3.13-3.59-6.55-1.15-10.22,3.64-5.47,9.93-4.93,14.12,1.48,3.18,4.87,5.99,9.99,8.77,15.1,9.94,18.27,17.34,37.48,19.81,58.24,1.74,14.62,8.78,25.71,20.98,33.42,8.91,5.63,17.3,11.82,24.72,19.27,2.26,2.27,4.09,2.38,6.4.41,7.75-6.59,16.33-12.03,24.7-17.75,11.21-7.65,15.48-19.92,11.2-32.81-9.64-29.09-14.83-58.88-15.01-89.59-.09-15.17-5.47-28.39-17.46-38.22-6.35-5.21-13.97-8.28-21.43-11.61-26.34-11.75-53.18-13.37-80.71-4.63-21.65,6.88-41.12,18.03-59.75,30.65-16.05,10.87-28.01,25.43-35.47,43.48-4.93,11.94-7.26,24.39-8.45,37.26-1.67,18.14-2.12,36.25.93,54.18,4.24,24.92,13.59,47.86,28.69,68.35,17.17,23.3,38.94,40.79,65.48,52.28,17.89,7.74,36.9,12.3,55.08,19.29,31.8,12.23,63.53,24.79,97.13,31.53,27.64,5.55,55.08,6.52,82.18-2.92,5.09-1.77,9.51.15,11.15,4.48,1.49,3.95-.79,8.09-5.75,9.97-22.27,8.46-45.34,9.72-68.75,7.3-21.25-2.2-41.77-7.83-62.16-13.96-9.19-2.77-16.42,4.07-14.4,13.49.94,4.38,1.84,8.78,2.97,13.11,1.88,7.24,3.63,14.54,5.98,21.63,4.41,13.28,12.8,23.12,25.91,28.69,5.12,2.18,7.11,6.63,5.21,10.79-1.96,4.28-6.36,5.66-11.43,3.48-9.64-4.16-17.83-10.12-24.27-18.58-6.81-8.94-10.79-19.07-13.38-29.82-3.23-13.45-6.31-26.9-13.98-38.75-13.67-21.12-33.85-32.25-57.68-37.92-8.79-2.09-15.74.81-21.29,7.48-5.15,6.19-5.84,13.43-3.11,20.69,9.1,24.25,21.18,47,35.7,68.42,23.91,35.25,53.11,65.59,86.43,92,29.04,23.03,60.52,42.23,93.66,58.76,4.69,2.34,9.61,3.67,14.96,2.32,12.29-3.09,18.6-13.46,16.46-26.14-2.44-14.44-4.9-28.89-10.52-42.48-5.96-14.41-14.35-27.38-25.01-38.84-3.64-3.91-3.6-8.96-.22-12.02,3.43-3.1,7.58-2.76,11.34,1.23,11.97,12.72,21.36,27.14,28.13,43.26,7.62,18.14,10.64,37.34,12.92,56.68,1.83,15.53,5.65,30.44,13.71,43.94,18.84,31.56,46.65,49.14,83.36,51.61,21.34,1.44,41.25-4.29,59.29-15.76,17.61-11.2,30.46-26.52,38.71-45.79,8.25-19.26,9.2-39.52,7.6-59.83-1.23-15.7-11.46-24.75-26.93-26.56-12.86-1.51-25.73-2.76-38.57-4.57-18.66-2.63-35.25,2.5-47.1,17.91-11.06,14.37-16.25,31.11-17.08,49.2-.25,5.56-3.61,9.44-8.26,9.42-3.88-.02-7.23-4.05-7.52-9.1-.06-1-.04-2,.04-3,1.67-20.68,8.32-39.52,20.32-56.54,7.96-11.28,5.18-23.24-6.71-30.15-6.34-3.68-12.65-7.42-18.46-11.88-17.38-13.35-32.02-29-40.67-49.54-2.1-4.99-.87-9.11,3.14-10.9,4.24-1.88,8.43-.34,10.71,4.41,14.85,30.89,40.37,49.6,71.11,62.27,21.07,8.68,43.21,13.06,65.76,15.56,8.48.94,16.72-.24,24-4.92,11.06-7.11,16.53-17.47,16.54-30.62.03-36.33.01-72.66.01-108.99Z"/>
          <path class="cls-1" d="M552.67,988.24c0,36.33.02,72.66-.01,108.99-.01,13.14-5.48,23.5-16.54,30.62-7.28,4.68-15.52,5.86-24,4.92-22.55-2.5-44.69-6.88-65.76-15.56-30.74-12.66-56.26-31.38-71.11-62.27-2.28-4.75-6.48-6.29-10.71-4.41-4.01,1.78-5.24,5.91-3.14,10.9,8.64,20.54,23.29,36.19,40.67,49.54,5.81,4.46,12.12,8.2,18.46,11.88,11.88,6.91,14.67,18.87,6.71,30.15-12,17.01-18.65,35.86-20.32,56.54-.08.99-.1,2-.04,3,.29,5.05,3.64,9.08,7.52,9.1,4.65.03,8.01-3.86,8.26-9.42.83-18.08,6.02-34.82,17.08-49.2,11.86-15.41,28.45-20.54,47.1-17.91,12.84,1.81,25.71,3.06,38.57,4.57,15.48,1.82,25.7,10.87,26.93,26.56,1.6,20.31.65,40.57-7.6,59.83-8.25,19.26-21.1,34.59-38.71,45.79-18.05,11.47-37.95,17.2-59.29,15.76-36.7-2.47-64.52-20.05-83.36-51.61-8.06-13.5-11.88-28.41-13.71-43.94-2.28-19.34-5.3-38.55-12.92-56.68-6.77-16.11-16.16-30.53-28.13-43.26-3.76-3.99-7.91-4.33-11.34-1.23-3.38,3.06-3.42,8.11.22,12.02,10.66,11.47,19.05,24.44,25.01,38.84,5.62,13.58,8.08,28.03,10.52,42.48,2.14,12.68-4.17,23.05-16.46,26.14-5.35,1.35-10.27.02-14.96-2.32-33.13-16.53-64.61-35.73-93.66-58.76-33.32-26.41-62.52-56.75-86.43-92-14.52-21.41-26.6-44.17-35.7-68.42-2.73-7.27-2.04-14.5,3.11-20.69,5.54-6.67,12.49-9.57,21.29-7.48,23.84,5.67,44.01,16.8,57.68,37.92,7.67,11.85,10.75,25.31,13.98,38.75,2.58,10.75,6.57,20.88,13.38,29.82,6.44,8.46,14.63,14.42,24.27,18.58,5.07,2.19,9.47.81,11.43-3.48,1.9-4.16-.08-8.61-5.21-10.79-13.11-5.57-21.5-15.41-25.91-28.69-2.35-7.09-4.1-14.39-5.98-21.63-1.13-4.33-2.03-8.73-2.97-13.11-2.02-9.42,5.21-16.26,14.4-13.49,20.39,6.14,40.91,11.76,62.16,13.96,23.4,2.42,46.48,1.15,68.75-7.3,4.95-1.88,7.24-6.02,5.75-9.97-1.63-4.33-6.06-6.25-11.15-4.48-27.1,9.44-54.54,8.47-82.18,2.92-33.6-6.74-65.33-19.3-97.13-31.53-18.18-6.99-37.2-11.55-55.08-19.29-26.53-11.48-48.31-28.98-65.48-52.28-15.09-20.49-24.45-43.43-28.69-68.35-3.05-17.93-2.59-36.03-.93-54.18,1.18-12.87,3.51-25.33,8.45-37.26,7.46-18.05,19.41-32.6,35.47-43.48,18.63-12.62,38.1-23.77,59.75-30.65,27.53-8.74,54.37-7.12,80.71,4.63,7.46,3.33,15.08,6.4,21.43,11.61,11.99,9.83,17.37,23.05,17.46,38.22.17,30.71,5.37,60.49,15.01,89.59,4.27,12.89,0,25.16-11.2,32.81-8.38,5.72-16.96,11.15-24.7,17.75-2.31,1.97-4.14,1.86-6.4-.41-7.42-7.45-15.81-13.64-24.72-19.27-12.2-7.71-19.24-18.8-20.98-33.42-2.47-20.76-9.87-39.97-19.81-58.24-2.78-5.11-5.59-10.24-8.77-15.1-4.19-6.41-10.49-6.95-14.12-1.48-2.44,3.67-.87,7.08,1.15,10.22,8.41,13.08,15.01,27.02,20.32,41.61,2.08,5.72,3.78,11.52,1.88,17.53-3.06,9.69-13.16,14.52-23.35,11.28-19.66-6.26-39.7-11.06-59.82-15.53-6.04-1.34-9.45.47-10.9,5.64-1.13,4.06,1.33,7.84,6.84,9.26,17.38,4.46,34.96,8.13,52.16,13.33,25.54,7.72,50.37,16.9,72.91,31.68,11.99,7.86,13.69,21.19,3.7,31.14-9.7,9.66-17.3,21.04-24.5,32.64-2.76,4.44-1.87,8.86,1.99,11.38,4,2.62,8.13,1.72,11.03-3.01,8.22-13.39,17.8-25.77,28.71-36.99,11.61-11.93,24.26-22.85,38.34-31.78,13.96-8.84,30.16-5,39.23,8.9,13.08,20.04,28.33,38.23,45.97,54.34,7.85,7.17,16.24,13.75,24.58,20.35,4.74,3.75,9.67,3.36,12.46-.37,2.65-3.53,1.4-8.63-3.07-12-19.46-14.73-37.22-31.24-52.32-50.45-20.05-25.51-34.95-53.75-44.36-84.85-6.33-20.93-10.18-42.27-11.21-64.12-.33-7.08,2.46-12.45,8.49-15.76,6.13-3.36,12.45-2.99,18.53.66,21.45,12.91,43.76,23.95,67.73,31.46,7.93,2.49,16.3,3.43,23.96,6.82,15.85,7,25.89,19.06,31.72,35.27,5.78,16.08,9.26,32.54,10.66,49.52.45,5.49,3.58,8.57,7.97,8.34,4.43-.24,7.25-3.63,7.16-9.01-.29-17.64-4.13-34.59-10.12-51.11-1.8-4.97-4.17-9.81-3.34-15.36,1.48-9.91,7.23-16.14,17.04-17.38,31.56-3.97,61.02-14.6,89.66-27.89,7.73-3.59,8.91-10.25,2.8-14.6-2.84-2.02-5.67-1.62-8.48-.22-21.69,10.81-44.29,19.04-68.05,23.87-21.11,4.29-42.29,5.75-63.9,3.13-33.42-4.06-63.41-16.94-92.23-33.39-24.27-13.86-47.17-30-71.94-43.05-7.68-4.05-15.61-7.46-23.61-10.74-10.77-4.43-13.33-16.31-4.58-24,8.74-7.69,17.97-14.83,25.19-24.1,1.23-1.57,2.58-3.09,3.56-4.81,2.04-3.55,1.07-8.17-1.97-10.29-3.58-2.51-8.03-2.24-10.63,1.42-16.29,22.96-39.83,35.57-64.83,46.44-24.26,10.54-48.32,21.57-71.84,33.74-15.79,8.17-31.53,5.18-43.53-7.86-5.1-5.54-8-12.25-8.31-19.84-.4-9.99.12-19.97,1.17-29.91,2.39-22.51,6.38-44.76,12.97-66.42,8.34-27.4,17.35-54.63,33.5-78.7,15.87-23.65,37.17-41.01,62.98-52.94,6.34-2.93,12.34-6.51,18.3-10.16,12.08-7.4,25.24-3.89,32.61,8.25,9.07,14.95,18.59,29.61,31.08,42.02,17.29,17.18,38.49,26.23,62.29,30.01,14.18,2.25,28.41,3.18,42.74,2.94,5.07-.08,8.14-2.97,8.32-7.42.17-4.17-2.61-6.94-7.43-7.74-5.13-.85-10.3-.53-15.45-.69-15.18-.48-30.11-2.46-44.65-7.08-18.23-5.8-32.58-16.88-44.33-31.75-8.38-10.61-15.43-22.09-22.54-33.53-7.9-12.73-8.05-25.19.73-37.74,18.31-26.19,30.1-55.45,39.92-85.64,4.94-15.18,9.69-30.41,13.88-45.81,1.45-5.34-.39-9.1-4.76-10.35-4.55-1.3-8.65,1.02-10.2,6.27-6,20.24-11.73,40.57-18.98,60.42-1.25,3.43-2.45,6.88-3.77,10.28-1.21,3.13-3.62,4.85-6.95,4.63-3.28-.22-5.32-2.04-6.27-5.4-2.54-8.98-5.55-17.81-10.81-25.66-.83-1.24-1.66-2.5-2.68-3.58-3.36-3.55-7.33-4.07-10.66-1.51-3.43,2.64-4.2,7.18-1.4,11.16,6.37,9.06,9.94,19.16,11.5,30,4.18,29.01-4.74,53.49-25.96,73.51-6.93,6.54-14.92,11.71-23.28,16.22-7.42,4.01-14.95,3.52-21.75-1.23-7.14-5-10.05-12.36-8.87-20.96,3.41-24.68,7.63-49.2,14.67-73.18,11.77-40.08,29.42-76.69,60.79-105.44,28.36-25.99,61.49-42.33,99.41-48.56,12.2-2,24.52-1.98,36.2,3.45,11.97,5.56,18.56,15.36,21.6,27.69,5.81,23.53,1.32,46.15-6.77,68.35-7.58,20.81-18.18,40.34-25.93,61.07-7.54,20.17-13.32,40.83-13.07,62.59.17,14.8,3.85,28.73,14.11,40.04,8.97,9.88,20.66,14.89,33.49,17.47,17.24,3.46,34.44,2.54,51.47-1.24,3.9-.87,6.22.04,8.7,2.73,16.18,17.57,27.76,37.69,34.1,60.78.44,1.6.81,3.25,1.47,4.76,1.79,4.05,5.63,5.9,9.34,4.65,4.11-1.38,6.3-5.01,5.28-9.4-3.75-16.19-10.31-31.21-18.91-45.4-3.07-5.07-7.2-9.67-7.81-15.96-.7-7.26,1.12-13.76,7.2-18.04,13.91-9.79,26.59-20.99,38.87-32.7,7.83-7.47,15.74-14.86,23.51-22.38,3.86-3.74,4.17-7.68,1.19-10.91-3.33-3.62-8.05-3.83-11.94-.21-12.79,11.9-25.32,24.09-38.26,35.82-17.13,15.54-36.27,27.82-59.46,31.8-19.51,3.34-39.15,4.27-57.58-5.24-11.4-5.88-17.18-15.78-18.97-28.22-3.04-21.17,3.07-40.84,9.94-60.38,7.35-20.9,17.91-40.43,26.05-61,8.56-21.62,13.84-43.86,11.88-67.19-1.75-20.89-9.12-39.14-27.98-50.85-4.7-2.92-9.92-4.56-15.06-6.42-.99-.36-2.55-.31-2.58-1.87-.02-1.14,1.15-1.49,1.95-2.06,11.75-8.31,22.38-17.82,30.91-29.47,2.84-3.87,5.43-7.99,7.61-12.26,2.01-3.93.28-8.06-3.53-10.13-3.66-1.98-7.44-1.18-9.74,2.93-15.93,28.37-41.59,43.56-71.42,53.22-4.74,1.54-9.43,3.25-14.17,4.78-6.06,1.96-11.73.03-14.81-4.94-3.2-5.16-2.69-11.07,1.51-15.66,22.9-25.02,48.14-47.26,76.77-65.63,23.23-14.9,47.7-27.13,73.77-36.15,8.38-2.9,16.19-1.51,22.62,4.76,6.32,6.16,7.7,13.69,5.09,22.05-3.91,12.53-9.09,24.67-11.27,37.71-3.99,23.78,8.67,39.54,26.22,50.57,3.73,2.34,8.01.92,10.08-2.43,2.22-3.59,1.44-7.95-2.03-10.72-1.95-1.55-4.06-2.9-6.03-4.42-14.93-11.55-15.16-26.36-9.91-42.75,3.76-11.73,13.76-19.83,26.05-19.2,8.61.44,17.13,1.76,25.48,4.34,14.45,4.49,27.3,12.14,40.29,19.56,2.02,1.15,4.01,2.41,6.15,3.32,4.25,1.81,8.38.44,10.23-3.37,2.01-4.12.84-7.66-2.9-9.94-18.77-11.43-37.59-22.87-59.54-27.25-6.98-1.39-14.13-2.03-21.24-2.61-7.66-.63-12.36-6.43-10.88-14.04,2.09-10.77,10.99-18.75,21.97-19.06,22-.62,43.68,1.8,63.88,10.96,25.13,11.39,40.59,31.19,44.48,58.53,3.17,22.29,1.07,44.91.97,67.37-.05,10.54-12.2,15.97-21.11,10.11-6.5-4.28-12.26-9.79-19.98-12.01-15.92-4.57-31.41,2.3-39.95,17.71-1.77,3.2-3.26,6.57-5.05,9.76-6.97,12.38-18.35,17.37-31.82,18.27-13.24.89-25.32,5.38-36.9,11.33-11.69,6.01-22.74,13.11-33.08,21.29-4.93,3.91-6.01,8.07-2.9,11.83,3.1,3.74,8.46,3.76,12.94.26,14.11-11.01,29.02-20.65,46.27-26.1,4.12-1.3,8.24-2.55,12.66-2.58,12.15-.1,19.81,9.88,16.24,21.46-12.68,41.14-36.62,73.52-74.22,95.26-6.38,3.69-7.36,9-2.66,13.24,2.72,2.45,5.53,2.55,8.72.88,9.91-5.22,19.02-11.61,27.6-18.74,19.39-16.09,34.05-35.86,44.78-58.58,7.7-16.3,13.04-33.43,17.68-50.82,3.29-12.35,6.07-24.91,11.94-36.43,1.6-3.13,3.45-6.08,5.99-8.54,5.94-5.74,14.17-7.32,20.98-2.83,14.54,9.6,27.83,20.51,35.52,36.89,4.11,8.76,6.37,17.9,6.47,27.44.24,22.16.05,44.33.11,66.49.02,5.97-1.81,11.06-7.45,13.56-5.22,2.31-10.17,1.32-14.81-2.53-12.04-10.01-25.63-17.28-40.69-21.7-3.54-1.04-7.23-2.01-10.55.32-2.22,1.56-3.8,3.89-3.24,6.87.81,4.29,3.94,6.37,7.82,7.46,12.34,3.46,23.6,9.06,33.46,17.25,19.66,16.32,31.41,37.02,34.62,62.55.82,6.5.79,12.95.79,19.43.04,70.66.04,141.32.04,211.97,0,10.7-4.07,16.05-13.64,18.63-4.13,1.11-7.86-.03-10.89-2.25-17.13-12.55-33.35-26.05-43.24-45.51-8.01-15.76-8.32-32.23-4.26-49.01,5.98-24.74,18.42-46.57,31.18-68.23,2.01-3.42,2.82-6.68.62-10.27-1.72-2.81-4.35-3.37-7.35-3.16-3.25.23-5.14,2.61-6.51,4.96-11.33,19.39-22.49,38.9-29.43,60.41-2.09,6.47-3.75,13.1-5.2,19.75-3.17,14.57-13.33,23.08-28.35,22.78-19.86-.39-39.08,2.84-57.8,9.29-13.6,4.68-26.36,11.11-38.19,19.29-8.42,5.82-16.9,6.45-25.53.69-23.31-15.56-49.81-23.5-76.08-32.02-25.3-8.21-50.96-15.51-74.7-27.86-20.12-10.47-37.78-23.66-48.05-44.8-1.12-2.3-2.28-4.97-5.42-5.42-3.09-.44-6.01-.3-8.16,2.44-2.18,2.78-2.44,5.67-.84,8.85,6.04,12,13.37,22.97,23.96,31.54,8.86,7.16,10.73,15.24,5.54,23.05-1.99,3-4.84,4.92-8.22,6.18-19.57,7.31-38.27,16.21-54.32,29.93-1.26,1.08-2.62,2.08-3.72,3.3-3.06,3.41-3.19,7.92-.46,10.86,3.27,3.51,7.2,3.81,11.04.36,15.91-14.28,34.72-23.37,54.6-30.45,28.21-10.04,56.45-9.13,84.57.56,19.02,6.55,38.47,11.85,57.21,19.24,7.44,2.93,14.81,6,21.89,9.72,12.63,6.64,15.52,19.96,7.2,31.57-5.32,7.43-10.39,15.07-14.19,23.44-.69,1.51-1.36,3.05-1.83,4.64-1.41,4.82.32,8.83,4.37,10.39,3.62,1.39,7.69-.45,9.8-4.75,4.05-8.22,8.37-16.27,13.79-23.7,12.02-16.5,26.78-29.95,44.51-40.06,4.54-2.59,9.45-2.6,13.69.42,4.56,3.24,6.25,8.08,5.32,13.67-1.43,8.61-1.2,17.18-.03,25.83,2.28,16.84,9.52,31.36,20.05,44.43,4.71,5.84,9.72,11.45,15.77,15.91,5.34,3.93,12.32,1.13,12.9-5.04.34-3.64-1.92-6.07-4.57-8.35-18.85-16.23-29.98-36.36-29.86-61.68.12-25.34,16.26-43.87,41.35-45.87,16.84-1.34,32.13,5.14,41.81,19.14,14.18,20.51,32.29,36.53,52.09,51.04,18.22,13.35,27.25,31.63,27.43,53.89.36,43.32.13,86.65.12,129.98,0,12.37-4.65,18.94-16.57,22.16-20.76,5.6-38.77,15.62-53.27,31.68-6.27,6.95-11.59,14.58-16.16,22.72-5.73,10.21-13.79,13.69-24.69,9.45-17.96-6.99-36.44-12.84-53.06-22.94-2.41-1.47-4.68-3.17-7.02-4.76-4.02-2.73-8.23-2.18-11.09,1.44-2.76,3.5-2.15,7.79,1.77,10.94,9.71,7.8,20.9,12.94,32.3,17.63,10.14,4.17,20.39,8.09,30.58,12.15,9.47,3.77,14.1,12.94,10.9,22.69-9.07,27.64-17.02,55.68-29.07,82.28-2.33,5.14-.91,9.5,3.32,11.4,4.27,1.91,8.46.13,10.88-4.99,4.98-10.51,8.95-21.44,12.94-32.35,1.36-3.72,3.22-6.52,7.45-7.1,4.49-.61,7.26,1.84,9.37,5.28,12.62,20.64,30.74,35.64,50.37,49.06,1.99,1.36,4.05,3.09,6.85,2.33,3.27-.89,5.6-2.68,6.58-6.13,1.08-3.77-.99-6.14-3.52-8.11-5.12-3.98-10.49-7.63-15.65-11.56-51.57-39.24-47.62-121.07,7.58-154.89,5.43-3.33,10.9-6.7,17.84-7.16,12.66-.84,21.46,9.86,21.41,21.1-.18,36.83-.07,73.66-.07,110.49Z"/>
        </g>
      </g>
      <path class="cls-2" d="M569.76,988.24c0,36.33-.02,72.66.01,108.99.01,13.14,5.48,23.5,16.54,30.62,7.28,4.68,15.52,5.86,24,4.92,22.55-2.5,44.69-6.88,65.76-15.56,30.74-12.66,56.26-31.38,71.11-62.27,2.28-4.75,6.48-6.29,10.71-4.41,4.01,1.78,5.24,5.91,3.14,10.9-8.64,20.54-23.29,36.19-40.67,49.54-5.81,4.46-12.12,8.2-18.46,11.88-11.88,6.91-14.67,18.87-6.71,30.15,12,17.01,18.65,35.86,20.32,56.54.08.99.1,2,.04,3-.29,5.05-3.64,9.08-7.52,9.1-4.65.03-8.01-3.86-8.26-9.42-.83-18.08-6.02-34.82-17.08-49.2-11.86-15.41-28.45-20.54-47.1-17.91-12.84,1.81-25.71,3.06-38.57,4.57-15.48,1.82-25.7,10.87-26.93,26.56-1.6,20.31-.65,40.57,7.6,59.83,8.25,19.26,21.1,34.59,38.71,45.79,18.05,11.47,37.95,17.2,59.29,15.76,36.7-2.47,64.52-20.05,83.36-51.61,8.06-13.5,11.88-28.41,13.71-43.94,2.28-19.34,5.3-38.55,12.92-56.68,6.77-16.11,16.16-30.53,28.13-43.26,3.76-3.99,7.91-4.33,11.34-1.23,3.38,3.06,3.42,8.11-.22,12.02-10.66,11.47-19.05,24.44-25.01,38.84-5.62,13.58-8.08,28.03-10.52,42.48-2.14,12.68,4.17,23.05,16.46,26.14,5.35,1.35,10.27.02,14.96-2.32,33.13-16.53,64.61-35.73,93.66-58.76,33.32-26.41,62.52-56.75,86.43-92,14.52-21.41,26.6-44.17,35.7-68.42,2.73-7.27,2.04-14.5-3.11-20.69-5.54-6.67-12.49-9.57-21.29-7.48-23.84,5.67-44.01,16.8-57.68,37.92-7.67,11.85-10.75,25.31-13.98,38.75-2.58,10.75-6.57,20.88-13.38,29.82-6.44,8.46-14.63,14.42-24.27,18.58-5.07,2.19-9.47.81-11.43-3.48-1.9-4.16.08-8.61,5.21-10.79,13.11-5.57,21.5-15.41,25.91-28.69,2.35-7.09,4.1-14.39,5.98-21.63,1.13-4.33,2.03-8.73,2.97-13.11,2.02-9.42-5.21-16.26-14.4-13.49-20.39,6.14-40.91,11.76-62.16,13.96-23.4,2.42-46.48,1.15-68.75-7.3-4.95-1.88-7.24-6.02-5.75-9.97,1.63-4.33,6.06-6.25,11.15-4.48,27.1,9.44,54.54,8.47,82.18,2.92,33.6-6.74,65.33-19.3,97.13-31.53,18.18-6.99,37.2-11.55,55.08-19.29,26.53-11.48,48.31-28.98,65.48-52.28,15.09-20.49,24.45-43.43,28.69-68.35,3.05-17.93,2.59-36.03.93-54.18-1.18-12.87-3.51-25.33-8.45-37.26-7.46-18.05-19.41-32.6-35.47-43.48-18.63-12.62-38.1-23.77-59.75-30.65-27.53-8.74-54.37-7.12-80.71,4.63-7.46,3.33-15.08,6.4-21.43,11.61-11.99,9.83-17.37,23.05-17.46,38.22-.17,30.71-5.37,60.49-15.01,89.59-4.27,12.89,0,25.16,11.2,32.81,8.38,5.72,16.96,11.15,24.7,17.75,2.31,1.97,4.14,1.86,6.4-.41,7.42-7.45,15.81-13.64,24.72-19.27,12.2-7.71,19.24-18.8,20.98-33.42,2.47-20.76,9.87-39.97,19.81-58.24,2.78-5.11,5.59-10.24,8.77-15.1,4.19-6.41,10.49-6.95,14.12-1.48,2.44,3.67.87,7.08-1.15,10.22-8.41,13.08-15.01,27.02-20.32,41.61-2.08,5.72-3.78,11.52-1.88,17.53,3.06,9.69,13.16,14.52,23.35,11.28,19.66-6.26,39.7-11.06,59.82-15.53,6.04-1.34,9.45.47,10.9,5.64,1.13,4.06-1.33,7.84-6.84,9.26-17.38,4.46-34.96,8.13-52.16,13.33-25.54,7.72-50.37,16.9-72.91,31.68-11.99,7.86-13.69,21.19-3.7,31.14,9.7,9.66,17.3,21.04,24.5,32.64,2.76,4.44,1.87,8.86-1.99,11.38-4,2.62-8.13,1.72-11.03-3.01-8.22-13.39-17.8-25.77-28.71-36.99-11.61-11.93-24.26-22.85-38.34-31.78-13.96-8.84-30.16-5-39.23,8.9-13.08,20.04-28.33,38.23-45.97,54.34-7.85,7.17-16.24,13.75-24.58,20.35-4.74,3.75-9.67,3.36-12.46-.37-2.65-3.53-1.4-8.63,3.07-12,19.46-14.73,37.22-31.24,52.32-50.45,20.05-25.51,34.95-53.75,44.36-84.85,6.33-20.93,10.18-42.27,11.21-64.12.33-7.08-2.46-12.45-8.49-15.76-6.13-3.36-12.45-2.99-18.53.66-21.45,12.91-43.76,23.95-67.73,31.46-7.93,2.49-16.3,3.43-23.96,6.82-15.85,7-25.89,19.06-31.72,35.27-5.78,16.08-9.26,32.54-10.66,49.52-.45,5.49-3.58,8.57-7.97,8.34-4.43-.24-7.25-3.63-7.16-9.01.29-17.64,4.13-34.59,10.12-51.11,1.8-4.97,4.17-9.81,3.34-15.36-1.48-9.91-7.23-16.14-17.04-17.38-31.56-3.97-61.02-14.6-89.66-27.89-7.73-3.59-8.91-10.25-2.8-14.6,2.84-2.02,5.67-1.62,8.48-.22,21.69,10.81,44.29,19.04,68.05,23.87,21.11,4.29,42.29,5.75,63.9,3.13,33.42-4.06,63.41-16.94,92.23-33.39,24.27-13.86,47.17-30,71.94-43.05,7.68-4.05,15.61-7.46,23.61-10.74,10.77-4.43,13.33-16.31,4.58-24-8.74-7.69-17.97-14.83-25.19-24.1-1.23-1.57-2.58-3.09-3.56-4.81-2.04-3.55-1.07-8.17,1.97-10.29,3.58-2.51,8.03-2.24,10.63,1.42,16.29,22.96,39.83,35.57,64.83,46.44,24.26,10.54,48.32,21.57,71.84,33.74,15.79,8.17,31.53,5.18,43.53-7.86,5.1-5.54,8-12.25,8.31-19.84.4-9.99-.12-19.97-1.17-29.91-2.39-22.51-6.38-44.76-12.97-66.42-8.34-27.4-17.35-54.63-33.5-78.7-15.87-23.65-37.17-41.01-62.98-52.94-6.34-2.93-12.34-6.51-18.3-10.16-12.08-7.4-25.24-3.89-32.61,8.25-9.07,14.95-18.59,29.61-31.08,42.02-17.29,17.18-38.49,26.23-62.29,30.01-14.18,2.25-28.41,3.18-42.74,2.94-5.07-.08-8.14-2.97-8.32-7.42-.17-4.17,2.61-6.94,7.43-7.74,5.13-.85,10.3-.53,15.45-.69,15.18-.48,30.11-2.46,44.65-7.08,18.23-5.8,32.58-16.88,44.33-31.75,8.38-10.61,15.43-22.09,22.54-33.53,7.9-12.73,8.05-25.19-.73-37.74-18.31-26.19-30.1-55.45-39.92-85.64-4.94-15.18-9.69-30.41-13.88-45.81-1.45-5.34.39-9.1,4.76-10.35,4.55-1.3,8.65,1.02,10.2,6.27,6,20.24,11.73,40.57,18.98,60.42,1.25,3.43,2.45,6.88,3.77,10.28,1.21,3.13,3.62,4.85,6.95,4.63,3.28-.22,5.32-2.04,6.27-5.4,2.54-8.98,5.55-17.81,10.81-25.66.83-1.24,1.66-2.5,2.68-3.58,3.36-3.55,7.33-4.07,10.66-1.51,3.43,2.64,4.2,7.18,1.4,11.16-6.37,9.06-9.94,19.16-11.5,30-4.18,29.01,4.74,53.49,25.96,73.51,6.93,6.54,14.92,11.71,23.28,16.22,7.42,4.01,14.95,3.52,21.75-1.23,7.14-5,10.05-12.36,8.87-20.96-3.41-24.68-7.63-49.2-14.67-73.18-11.77-40.08-29.42-76.69-60.79-105.44-28.36-25.99-61.49-42.33-99.41-48.56-12.2-2-24.52-1.98-36.2,3.45-11.97,5.56-18.56,15.36-21.6,27.69-5.81,23.53-1.32,46.15,6.77,68.35,7.58,20.81,18.18,40.34,25.93,61.07,7.54,20.17,13.32,40.83,13.07,62.59-.17,14.8-3.85,28.73-14.11,40.04-8.97,9.88-20.66,14.89-33.49,17.47-17.24,3.46-34.44,2.54-51.47-1.24-3.9-.87-6.22.04-8.7,2.73-16.18,17.57-27.76,37.69-34.1,60.78-.44,1.6-.81,3.25-1.47,4.76-1.79,4.05-5.63,5.9-9.34,4.65-4.11-1.38-6.3-5.01-5.28-9.4,3.75-16.19,10.31-31.21,18.91-45.4,3.07-5.07,7.2-9.67,7.81-15.96.7-7.26-1.12-13.76-7.2-18.04-13.91-9.79-26.59-20.99-38.87-32.7-7.83-7.47-15.74-14.86-23.51-22.38-3.86-3.74-4.17-7.68-1.19-10.91,3.33-3.62,8.05-3.83,11.94-.21,12.79,11.9,25.32,24.09,38.26,35.82,17.13,15.54,36.27,27.82,59.46,31.8,19.51,3.34,39.15,4.27,57.58-5.24,11.4-5.88,17.18-15.78,18.97-28.22,3.04-21.17-3.07-40.84-9.94-60.38-7.35-20.9-17.91-40.43-26.05-61-8.56-21.62-13.84-43.86-11.88-67.19,1.75-20.89,9.12-39.14,27.98-50.85,4.7-2.92,9.92-4.56,15.06-6.42.99-.36,2.55-.31,2.58-1.87.02-1.14-1.15-1.49-1.95-2.06-11.75-8.31-22.38-17.82-30.91-29.47-2.84-3.87-5.43-7.99-7.61-12.26-2.01-3.93-.28-8.06,3.53-10.13,3.66-1.98,7.44-1.18,9.74,2.93,15.93,28.37,41.59,43.56,71.42,53.22,4.74,1.54,9.43,3.25,14.17,4.78,6.06,1.96,11.73.03,14.81-4.94,3.2-5.16,2.69-11.07-1.51-15.66-22.9-25.02-48.14-47.26-76.77-65.63-23.23-14.9-47.7-27.13-73.77-36.15-8.38-2.9-16.19-1.51-22.62,4.76-6.32,6.16-7.7,13.69-5.09,22.05,3.91,12.53,9.09,24.67,11.27,37.71,3.99,23.78-8.67,39.54-26.22,50.57-3.73,2.34-8.01.92-10.08-2.43-2.22-3.59-1.44-7.95,2.03-10.72,1.95-1.55,4.06-2.9,6.03-4.42,14.93-11.55,15.16-26.36,9.91-42.75-3.76-11.73-13.76-19.83-26.05-19.2-8.61.44-17.13,1.76-25.48,4.34-14.45,4.49-27.3,12.14-40.29,19.56-2.02,1.15-4.01,2.41-6.15,3.32-4.25,1.81-8.38.44-10.23-3.37-2.01-4.12-.84-7.66,2.9-9.94,18.77-11.43,37.59-22.87,59.54-27.25,6.98-1.39,14.13-2.03,21.24-2.61,7.66-.63,12.36-6.43,10.88-14.04-2.09-10.77-10.99-18.75-21.97-19.06-22-.62-43.68,1.8-63.88,10.96-25.13,11.39-40.59,31.19-44.48,58.53-3.17,22.29-1.07,44.91-.97,67.37.05,10.54,12.2,15.97,21.11,10.11,6.5-4.28,12.26-9.79,19.98-12.01,15.92-4.57,31.41,2.3,39.95,17.71,1.77,3.2,3.26,6.57,5.05,9.76,6.97,12.38,18.35,17.37,31.82,18.27,13.24.89,25.32,5.38,36.9,11.33,11.69,6.01,22.74,13.11,33.08,21.29,4.93,3.91,6.01,8.07,2.9,11.83-3.1,3.74-8.46,3.76-12.94.26-14.11-11.01-29.02-20.65-46.27-26.1-4.12-1.3-8.24-2.55-12.66-2.58-12.15-.1-19.81,9.88-16.24,21.46,12.68,41.14,36.62,73.52,74.22,95.26,6.38,3.69,7.36,9,2.66,13.24-2.72,2.45-5.53,2.55-8.72.88-9.91-5.22-19.02-11.61-27.6-18.74-19.39-16.09-34.05-35.86-44.78-58.58-7.7-16.3-13.04-33.43-17.68-50.82-3.29-12.35-6.07-24.91-11.94-36.43-1.6-3.13-3.45-6.08-5.99-8.54-5.94-5.74-14.17-7.32-20.98-2.83-14.54,9.6-27.83,20.51-35.52,36.89-4.11,8.76-6.37,17.9-6.47,27.44-.24,22.16-.05,44.33-.11,66.49-.02,5.97,1.81,11.06,7.45,13.56,5.22,2.31,10.17,1.32,14.81-2.53,12.04-10.01,25.63-17.28,40.69-21.7,3.54-1.04,7.23-2.01,10.55.32,2.22,1.56,3.8,3.89,3.24,6.87-.81,4.29-3.94,6.37-7.82,7.46-12.34,3.46-23.6,9.06-33.46,17.25-19.66,16.32-31.41,37.02-34.62,62.55-.82,6.5-.79,12.95-.79,19.43-.04,70.66-.04,141.32-.04,211.97,0,10.7,4.07,16.05,13.64,18.63,4.13,1.11,7.86-.03,10.89-2.25,17.13-12.55,33.35-26.05,43.24-45.51,8.01-15.76,8.32-32.23,4.26-49.01-5.98-24.74-18.42-46.57-31.18-68.23-2.01-3.42-2.82-6.68-.62-10.27,1.72-2.81,4.35-3.37,7.35-3.16,3.25.23,5.14,2.61,6.51,4.96,11.33,19.39,22.49,38.9,29.43,60.41,2.09,6.47,3.75,13.1,5.2,19.75,3.17,14.57,13.33,23.08,28.35,22.78,19.86-.39,39.08,2.84,57.8,9.29,13.6,4.68,26.36,11.11,38.19,19.29,8.42,5.82,16.9,6.45,25.53.69,23.31-15.56,49.81-23.5,76.08-32.02,25.3-8.21,50.96-15.51,74.7-27.86,20.12-10.47,37.78-23.66,48.05-44.8,1.12-2.3,2.28-4.97,5.42-5.42,3.09-.44,6.01-.3,8.16,2.44,2.18,2.78,2.44,5.67.84,8.85-6.04,12-13.37,22.97-23.96,31.54-8.86,7.16-10.73,15.24-5.54,23.05,1.99,3,4.84,4.92,8.22,6.18,19.57,7.31,38.27,16.21,54.32,29.93,1.26,1.08,2.62,2.08,3.72,3.3,3.06,3.41,3.19,7.92.46,10.86-3.27,3.51-7.2,3.81-11.04.36-15.91-14.28-34.72-23.37-54.6-30.45-28.21-10.04-56.45-9.13-84.57.56-19.02,6.55-38.47,11.85-57.21,19.24-7.44,2.93-14.81,6-21.89,9.72-12.63,6.64-15.52,19.96-7.2,31.57,5.32,7.43,10.39,15.07,14.19,23.44.69,1.51,1.36,3.05,1.83,4.64,1.41,4.82-.32,8.83-4.37,10.39-3.62,1.39-7.69-.45-9.8-4.75-4.05-8.22-8.37-16.27-13.79-23.7-12.02-16.5-26.78-29.95-44.51-40.06-4.54-2.59-9.45-2.6-13.69.42-4.56,3.24-6.25,8.08-5.32,13.67,1.43,8.61,1.2,17.18.03,25.83-2.28,16.84-9.52,31.36-20.05,44.43-4.71,5.84-9.72,11.45-15.77,15.91-5.34,3.93-12.32,1.13-12.9-5.04-.34-3.64,1.92-6.07,4.57-8.35,18.85-16.23,29.98-36.36,29.86-61.68-.12-25.34-16.26-43.87-41.35-45.87-16.84-1.34-32.13,5.14-41.81,19.14-14.18,20.51-32.29,36.53-52.09,51.04-18.22,13.35-27.25,31.63-27.43,53.89-.36,43.32-.13,86.65-.12,129.98,0,12.37,4.65,18.94,16.57,22.16,20.76,5.6,38.77,15.62,53.27,31.68,6.27,6.95,11.59,14.58,16.16,22.72,5.73,10.21,13.79,13.69,24.69,9.45,17.96-6.99,36.44-12.84,53.06-22.94,2.41-1.47,4.68-3.17,7.02-4.76,4.02-2.73,8.23-2.18,11.09,1.44,2.76,3.5,2.15,7.79-1.77,10.94-9.71,7.8-20.9,12.94-32.3,17.63-10.14,4.17-20.39,8.09-30.58,12.15-9.47,3.77-14.1,12.94-10.9,22.69,9.07,27.64,17.02,55.68,29.07,82.28,2.33,5.14.91,9.5-3.32,11.4-4.27,1.91-8.46.13-10.88-4.99-4.98-10.51-8.95-21.44-12.94-32.35-1.36-3.72-3.22-6.52-7.45-7.1-4.49-.61-7.26,1.84-9.37,5.28-12.62,20.64-30.74,35.64-50.37,49.06-1.99,1.36-4.05,3.09-6.85,2.33-3.27-.89-5.6-2.68-6.58-6.13-1.08-3.77.99-6.14,3.52-8.11,5.12-3.98,10.49-7.63,15.65-11.56,51.57-39.24,47.62-121.07-7.58-154.89-5.43-3.33-10.9-6.7-17.84-7.16-12.66-.84-21.46,9.86-21.41,21.1.18,36.83.07,73.66.07,110.49Z"/>
    </g>
  </g>
</svg>