<svg width="233" height="55" viewBox="0 0 233 55" fill="none" xmlns="http://www.w3.org/2000/svg">
<path d="M49.7339 20.6354C49.7339 17.7701 50.132 16.1734 50.2457 13.3955H50.3463V10.049C50.3463 5.10145 48.4084 4.17843 42.4984 4.17843C38.7364 4.17843 37.1222 4.7165 33.7888 4.7165C31.9646 4.7165 30.0267 3.531 29.9217 0.0882568H24.5454C24.4361 3.52663 22.5025 4.7165 20.674 4.7165C17.3406 4.7165 15.7264 4.17843 11.9643 4.17843C6.22056 4.17843 4.23891 6.21258 4.12954 10.8627C4.1033 11.1952 4.09017 11.5495 4.09017 11.9257C4.09017 12.4331 4.09892 12.9012 4.11642 13.3387V13.3955C4.23016 16.1734 4.62824 17.7701 4.62824 20.6354C4.62824 22.4595 3.44275 24.3975 0 24.5024V29.9225C3.43837 30.0275 4.62824 31.9654 4.62824 33.7895C4.62824 36.6723 4.22578 38.269 4.11642 41.0775V41.0862C4.09892 41.5237 4.09017 41.9918 4.09017 42.4992C4.09017 42.871 4.1033 43.2166 4.12517 43.5447C4.21704 48.2429 6.19432 50.2946 11.9643 50.2946C15.7264 50.2946 17.3406 49.7565 20.674 49.7565C22.5025 49.7565 24.4361 50.942 24.5454 54.3848H29.9217C30.0267 50.9464 31.9646 49.7565 33.7888 49.7565C37.1222 49.7565 38.7364 50.2946 42.4984 50.2946C48.4128 50.2946 50.3463 49.3716 50.3463 44.424V41.0775H50.2457C50.1363 38.269 49.7339 36.6723 49.7339 33.7895C49.7339 31.9654 50.9194 30.0275 54.3621 29.9225V24.5024C50.9238 24.3975 49.7339 22.4595 49.7339 20.6354ZM48.1678 27.2365V27.3415C45.3156 27.9889 43.872 29.4894 43.872 33.7895C43.872 36.9086 45.3987 38.0897 45.3987 42.0136C45.3987 42.3723 45.3506 42.7223 45.2675 43.0679C44.9044 43.8378 44.047 44.1047 42.1791 44.1047C39.4363 44.1047 36.9078 43.8947 33.7931 43.8947C29.493 43.8947 27.9882 45.3426 27.3451 48.1905H27.1264C26.4833 45.3383 24.9785 43.8947 20.6783 43.8947C17.5593 43.8947 15.0352 44.1047 12.2924 44.1047C9.73768 44.1047 9.06838 43.606 8.97651 42.0005C8.97651 38.0897 10.5032 36.9042 10.5032 33.7895C10.5032 29.4894 9.05525 27.9846 6.20744 27.3415V27.079C9.05963 26.4316 10.5032 24.9311 10.5032 20.631C10.5032 17.5251 8.99401 16.3396 8.98089 12.455C9.07712 10.8583 9.74643 10.364 12.2968 10.364C15.0396 10.364 17.5681 10.574 20.6827 10.574C24.9829 10.574 26.4877 9.12601 27.1308 6.2782H27.3495C27.9969 9.13038 29.4974 10.574 33.7975 10.574C36.9166 10.574 39.4407 10.364 42.1835 10.364C44.0776 10.364 44.935 10.6352 45.2894 11.4314C45.3594 11.7507 45.4031 12.0744 45.4031 12.4025C45.4031 16.3265 43.8764 17.5076 43.8764 20.6266C43.8764 24.9268 45.3244 26.4316 48.1722 27.0747V27.2278L48.1678 27.2365ZM20.6521 24.5331L16.4351 20.316L20.2584 16.4927L24.4754 20.7097V14.7473H29.8867V20.7097L34.1037 16.4927L37.9271 20.316L33.71 24.5331H39.6725V29.94H33.71L37.9271 34.157L34.1037 37.9803L29.8867 33.7633V39.7258H24.4754V33.7633L20.2584 37.9803L16.4351 34.157L20.6521 29.94H14.6896V24.5287H20.6521V24.5331Z" fill="#FF214F"/>
<path d="M67.9716 30.9417C67.9716 25.1717 72.1274 20.7228 78.0374 20.7228C80.8546 20.7228 83.4137 21.777 85.1766 23.6275L82.5081 26.2959C81.4976 25.0536 79.8965 24.2924 78.0549 24.2924C74.3759 24.2924 71.9612 27.1883 71.9612 30.9548C71.9612 34.7212 74.5203 37.604 78.1336 37.604C79.9403 37.604 81.5851 36.821 82.5956 35.548L85.2641 38.2165C83.5099 40.0756 80.9202 41.1343 78.068 41.1343C72.0487 41.1343 67.9585 36.6723 67.9585 30.9591L67.9672 30.9504L67.9716 30.9417Z" fill="#3C3B3B"/>
<path d="M99.5249 37.1753H95.2379C94.2711 37.1753 93.7462 36.6198 93.7462 35.5743V13.9204H85.334V17.1182H89.8485V35.8061C89.8485 38.8552 91.5239 40.64 94.4505 40.64H99.5205V37.1797L99.5249 37.1753Z" fill="#3C3B3B"/>
<path d="M102.867 30.9724C102.867 24.7999 107.023 20.7185 112.522 20.7185C118.615 20.7185 122.076 25.1805 122.076 30.7187V32.1666H106.76C106.9 35.5525 109.175 37.8491 112.701 37.8491C115.16 37.8491 117.316 36.6636 118.09 34.7695H121.888C120.842 38.5228 117.426 41.1256 112.635 41.1256C106.8 41.1256 102.863 36.8167 102.863 30.9811V30.9724H102.867ZM118.169 29.1569C117.907 25.8804 115.566 23.9863 112.522 23.9863C109.477 23.9863 107.132 26.1079 106.839 29.1569H118.169Z" fill="#3C3B3B"/>
<path d="M126.428 30.9724C126.428 24.953 130.26 20.7185 135.645 20.7185C139.399 20.7185 141.415 23.0239 142.032 24.0256H142.26V21.2085H146.166V40.6444H142.369V37.8929H142.106C141.617 38.6322 139.722 41.1256 135.86 41.1256C130.287 41.1256 126.424 37.0005 126.424 30.9811V30.9724H126.428ZM142.373 30.9418C142.373 26.7422 139.814 24.2794 136.354 24.2794C132.894 24.2794 130.413 27.0309 130.413 30.9418C130.413 34.8526 132.828 37.591 136.433 37.591C140.037 37.591 142.373 34.6207 142.373 30.9418Z" fill="#3C3B3B"/>
<path d="M160.637 31.0511V37.1798H168.852V40.6401H152.277V37.1798H156.739V24.8612H152.242V21.2041H160.493V24.59H160.755C161.354 23.0326 163.17 21.1735 165.956 21.1735H169.263V24.8743H165.847C162.225 24.8743 160.646 27.4553 160.646 31.0555H160.637V31.0511Z" fill="#3C3B3B"/>
<path d="M179.701 24.8567H175.152V21.1996H179.732V20.4691C179.732 16.4183 182.562 13.9729 186.643 13.9729H188.691V17.28H186.862C184.522 17.28 183.555 18.6493 183.555 20.5872V21.1952H192.383L190.121 24.8523H183.603V40.6312H179.697V24.8523H179.705L179.701 24.8567Z" fill="#3C3B3B"/>
<path d="M210.078 37.1754L207.475 40.6356H195.034V37.1754H199.898V24.8568H195.384L197.645 21.1997H203.796V37.1754H210.078ZM199.303 15.6615C199.303 14.2486 200.379 13.2118 201.871 13.2118C203.363 13.2118 204.43 14.2573 204.43 15.6615C204.43 17.1532 203.385 18.155 201.871 18.155C200.357 18.155 199.303 17.1532 199.303 15.6615Z" fill="#3C3B3B"/>
<path d="M233 40.64L225.577 30.7667L232.48 21.5934H227.55L223.118 27.4902L218.678 21.5934H213.748L220.647 30.7667L213.236 40.64H218.166L223.118 34.0433L228.07 40.64H233Z" fill="#3C3B3B"/>
</svg>
