<svg width="200" height="199" viewBox="0 0 200 199" fill="none" xmlns="http://www.w3.org/2000/svg">
<path d="M182.973 74.9571C182.973 64.5043 184.437 58.6794 184.856 48.5458H185.226V36.3375C185.226 18.2884 178.096 14.9212 156.353 14.9212C142.512 14.9212 136.574 16.8841 124.31 16.8841C117.599 16.8841 110.469 12.5593 110.083 0H90.3034C89.901 12.5434 82.7875 16.8841 76.0602 16.8841C63.7966 16.8841 57.8579 14.9212 44.0171 14.9212C22.8857 14.9212 15.5951 22.3419 15.1927 39.3058C15.0962 40.5186 15.0479 41.8113 15.0479 43.1837C15.0479 45.0349 15.0801 46.7425 15.1444 48.3383V48.5458C15.5629 58.6794 17.0274 64.5043 17.0274 74.9571C17.0274 81.6118 12.666 88.6814 0 89.0644V108.837C12.6499 109.22 17.0274 116.29 17.0274 122.944C17.0274 133.461 15.5468 139.286 15.1444 149.531V149.563C15.0801 151.159 15.0479 152.866 15.0479 154.718C15.0479 156.074 15.0962 157.335 15.1766 158.532C15.5146 175.671 22.7891 183.156 44.0171 183.156C57.8579 183.156 63.7966 181.193 76.0602 181.193C82.7875 181.193 89.901 185.518 90.3034 198.077H110.083C110.469 185.534 117.599 181.193 124.31 181.193C136.574 181.193 142.512 183.156 156.353 183.156C178.112 183.156 185.226 179.788 185.226 161.739V149.531H184.856C184.453 139.286 182.973 133.461 182.973 122.944C182.973 116.29 187.334 109.22 200 108.837V89.0644C187.35 88.6814 182.973 81.6118 182.973 74.9571ZM177.211 99.0385V99.4215C166.718 101.783 161.407 107.257 161.407 122.944C161.407 134.323 167.023 138.632 167.023 152.946C167.023 154.255 166.846 155.532 166.541 156.792C165.205 159.601 162.05 160.574 155.178 160.574C145.087 160.574 135.785 159.808 124.326 159.808C108.506 159.808 102.969 165.091 100.604 175.48H99.7988C97.433 165.075 91.8967 159.808 76.0763 159.808C64.6013 159.808 55.315 160.574 45.2241 160.574C35.8252 160.574 33.3628 158.755 33.0249 152.898C33.0249 138.632 38.6417 134.307 38.6417 122.944C38.6417 107.257 33.3146 101.767 22.8374 99.4215V98.464C33.3307 96.1021 38.6417 90.6283 38.6417 74.9411C38.6417 63.6106 33.0892 59.2858 33.041 45.1147C33.395 39.2898 35.8574 37.4865 45.2402 37.4865C55.3311 37.4865 64.6335 38.2525 76.0924 38.2525C91.9128 38.2525 97.4491 32.9703 99.8149 22.5813H100.62C103.002 32.9862 108.522 38.2525 124.342 38.2525C135.817 38.2525 145.103 37.4865 155.194 37.4865C162.163 37.4865 165.317 38.4759 166.621 41.3804C166.879 42.5454 167.04 43.7263 167.04 44.9232C167.04 59.238 161.423 63.5468 161.423 74.9252C161.423 90.6124 166.75 96.1021 177.227 98.448V99.0065L177.211 99.0385ZM75.9797 89.1761L60.4651 73.7921L74.5313 59.8444L90.0459 75.2284V53.4769H109.954V75.2284L125.469 59.8444L139.535 73.7921L124.02 89.1761H145.956V108.901H124.02L139.535 124.285L125.469 138.233L109.954 122.849V144.6H90.0459V122.849L74.5313 138.233L60.4651 124.285L75.9797 108.901H54.0436V89.1601H75.9797V89.1761Z" fill="#FF214F"/>
</svg>
