<svg width="58" height="116" viewBox="0 0 58 116" fill="none" xmlns="http://www.w3.org/2000/svg">
<mask id="mask0_253_9095" style="mask-type:alpha" maskUnits="userSpaceOnUse" x="0" y="0" width="58" height="116">
<rect width="58" height="116" fill="#D9D9D9"/>
</mask>
<g mask="url(#mask0_253_9095)">
<g clip-path="url(#clip0_253_9095)">
<path d="M5.23603 -1.51899C5.23603 -2.17699 5.32704 -2.54799 5.35504 -3.18499H5.37604V-3.95499C5.37604 -5.09599 4.92804 -5.30599 3.55604 -5.30599C2.68104 -5.30599 2.31003 -5.17999 1.53303 -5.17999C1.10603 -5.17999 0.658035 -5.45299 0.637035 -6.24399H-0.608965C-0.636965 -5.45299 -1.08496 -5.17999 -1.50497 -5.17999C-2.28197 -5.17999 -2.65296 -5.30599 -3.52796 -5.30599C-4.86496 -5.30599 -5.31996 -4.83699 -5.34796 -3.76599C-5.34796 -3.68899 -5.35496 -3.60499 -5.35496 -3.52099C-5.35496 -3.40199 -5.35496 -3.29699 -5.35496 -3.19899V-3.18499C-5.32696 -2.54799 -5.23596 -2.17699 -5.23596 -1.51899C-5.23596 -1.09899 -5.50896 -0.650988 -6.31396 -0.629988V0.616012C-5.51596 0.637012 -5.23596 1.08501 -5.23596 1.50501C-5.23596 2.17001 -5.32696 2.53401 -5.35496 3.18501C-5.35496 3.29001 -5.35496 3.39501 -5.35496 3.51401C-5.35496 3.59801 -5.35496 3.68201 -5.34796 3.75201C-5.32696 4.83701 -4.86496 5.30601 -3.52796 5.30601C-2.65296 5.30601 -2.28197 5.18001 -1.50497 5.18001C-1.07797 5.18001 -0.629965 5.45301 -0.608965 6.24401H0.637035C0.658035 5.45301 1.11303 5.18001 1.53303 5.18001C2.31003 5.18001 2.68104 5.30601 3.55604 5.30601C4.92804 5.30601 5.37604 5.09601 5.37604 3.95501V3.18501H5.35504C5.32704 2.54101 5.23603 2.17001 5.23603 1.50501C5.23603 1.08501 5.50904 0.637012 6.31404 0.616012V-0.629988C5.51604 -0.650988 5.23603 -1.09899 5.23603 -1.51899ZM4.87203 1.191e-05V0.0210117C4.20703 0.168012 3.87103 0.518012 3.87103 1.50501C3.87103 2.22601 4.22804 2.49201 4.22804 3.40201C4.22804 3.48601 4.21404 3.56301 4.20004 3.64701C4.11604 3.82201 3.92003 3.88501 3.48603 3.88501C2.84903 3.88501 2.26103 3.83601 1.54003 3.83601C0.539035 3.83601 0.189035 4.17201 0.042035 4.82301H-0.00696479C-0.153965 4.16501 -0.503965 3.83601 -1.50497 3.83601C-2.22596 3.83601 -2.81396 3.88501 -3.45096 3.88501C-4.04596 3.88501 -4.19996 3.77301 -4.22096 3.40201C-4.22096 2.49901 -3.86396 2.22601 -3.86396 1.51201C-3.86396 0.525012 -4.19996 0.175012 -4.86496 0.0280119V-0.0349882C-4.19996 -0.181988 -3.86396 -0.531988 -3.86396 -1.51899C-3.86396 -2.23299 -4.21396 -2.50599 -4.22096 -3.40199C-4.19996 -3.77299 -4.04596 -3.88499 -3.45096 -3.88499C-2.81396 -3.88499 -2.22596 -3.83599 -1.50497 -3.83599C-0.503965 -3.83599 -0.153965 -4.17199 -0.00696479 -4.82299H0.042035C0.189035 -4.16499 0.539035 -3.83599 1.54003 -3.83599C2.26103 -3.83599 2.84903 -3.88499 3.48603 -3.88499C3.92703 -3.88499 4.12304 -3.82199 4.20704 -3.63999C4.22104 -3.56299 4.23503 -3.49299 4.23503 -3.41599C4.23503 -2.51299 3.87803 -2.23999 3.87803 -1.51899C3.87803 -0.531988 4.21403 -0.181988 4.87903 -0.0349882V1.191e-05H4.87203ZM-1.51896 -0.622988L-2.49897 -1.59599L-1.60997 -2.47799L-0.629964 -1.50499V-2.87699H0.630035V-1.50499L1.61003 -2.47799L2.49904 -1.59599L1.51904 -0.622988H2.90504V0.623012H1.51904L2.49904 1.59601L1.61003 2.47801L0.630035 1.50501V2.87701H-0.629964V1.50501L-1.60997 2.47801L-2.49897 1.59601L-1.51896 0.623012H-2.90496V-0.622988H-1.51896Z" fill="white" fill-opacity="0.05"/>
</g>
<g clip-path="url(#clip1_253_9095)">
<path d="M63.236 -1.51899C63.236 -2.17699 63.327 -2.54799 63.355 -3.18499H63.376V-3.95499C63.376 -5.09599 62.928 -5.30599 61.556 -5.30599C60.681 -5.30599 60.31 -5.17999 59.533 -5.17999C59.106 -5.17999 58.658 -5.45299 58.637 -6.24399H57.391C57.363 -5.45299 56.915 -5.17999 56.495 -5.17999C55.718 -5.17999 55.347 -5.30599 54.472 -5.30599C53.135 -5.30599 52.68 -4.83699 52.652 -3.76599C52.652 -3.68899 52.645 -3.60499 52.645 -3.52099C52.645 -3.40199 52.645 -3.29699 52.645 -3.19899V-3.18499C52.673 -2.54799 52.764 -2.17699 52.764 -1.51899C52.764 -1.09899 52.491 -0.650988 51.686 -0.629988V0.616012C52.484 0.637012 52.764 1.08501 52.764 1.50501C52.764 2.17001 52.673 2.53401 52.645 3.18501C52.645 3.29001 52.645 3.39501 52.645 3.51401C52.645 3.59801 52.645 3.68201 52.652 3.75201C52.673 4.83701 53.135 5.30601 54.472 5.30601C55.347 5.30601 55.718 5.18001 56.495 5.18001C56.922 5.18001 57.37 5.45301 57.391 6.24401H58.637C58.658 5.45301 59.113 5.18001 59.533 5.18001C60.31 5.18001 60.681 5.30601 61.556 5.30601C62.928 5.30601 63.376 5.09601 63.376 3.95501V3.18501H63.355C63.327 2.54101 63.236 2.17001 63.236 1.50501C63.236 1.08501 63.509 0.637012 64.314 0.616012V-0.629988C63.516 -0.650988 63.236 -1.09899 63.236 -1.51899ZM62.872 1.191e-05V0.0210117C62.207 0.168012 61.871 0.518012 61.871 1.50501C61.871 2.22601 62.228 2.49201 62.228 3.40201C62.228 3.48601 62.214 3.56301 62.2 3.64701C62.116 3.82201 61.92 3.88501 61.486 3.88501C60.849 3.88501 60.261 3.83601 59.54 3.83601C58.539 3.83601 58.189 4.17201 58.042 4.82301H57.993C57.846 4.16501 57.496 3.83601 56.495 3.83601C55.774 3.83601 55.186 3.88501 54.549 3.88501C53.954 3.88501 53.8 3.77301 53.779 3.40201C53.779 2.49901 54.136 2.22601 54.136 1.51201C54.136 0.525012 53.8 0.175012 53.135 0.0280119V-0.0349882C53.8 -0.181988 54.136 -0.531988 54.136 -1.51899C54.136 -2.23299 53.786 -2.50599 53.779 -3.40199C53.8 -3.77299 53.954 -3.88499 54.549 -3.88499C55.186 -3.88499 55.774 -3.83599 56.495 -3.83599C57.496 -3.83599 57.846 -4.17199 57.993 -4.82299H58.042C58.189 -4.16499 58.539 -3.83599 59.54 -3.83599C60.261 -3.83599 60.849 -3.88499 61.486 -3.88499C61.927 -3.88499 62.123 -3.82199 62.207 -3.63999C62.221 -3.56299 62.235 -3.49299 62.235 -3.41599C62.235 -2.51299 61.878 -2.23999 61.878 -1.51899C61.878 -0.531988 62.214 -0.181988 62.879 -0.0349882V1.191e-05H62.872ZM56.481 -0.622988L55.501 -1.59599L56.39 -2.47799L57.37 -1.50499V-2.87699H58.63V-1.50499L59.61 -2.47799L60.499 -1.59599L59.519 -0.622988H60.905V0.623012H59.519L60.499 1.59601L59.61 2.47801L58.63 1.50501V2.87701H57.37V1.50501L56.39 2.47801L55.501 1.59601L56.481 0.623012H55.095V-0.622988H56.481Z" fill="white" fill-opacity="0.05"/>
</g>
<g clip-path="url(#clip2_253_9095)">
<path d="M5.23603 114.481C5.23603 113.823 5.32704 113.452 5.35504 112.815H5.37604V112.045C5.37604 110.904 4.92804 110.694 3.55604 110.694C2.68104 110.694 2.31003 110.82 1.53303 110.82C1.10603 110.82 0.658035 110.547 0.637035 109.756H-0.608965C-0.636965 110.547 -1.08496 110.82 -1.50497 110.82C-2.28197 110.82 -2.65296 110.694 -3.52796 110.694C-4.86496 110.694 -5.31996 111.163 -5.34796 112.234C-5.34796 112.311 -5.35496 112.395 -5.35496 112.479C-5.35496 112.598 -5.35496 112.703 -5.35496 112.801V112.815C-5.32696 113.452 -5.23596 113.823 -5.23596 114.481C-5.23596 114.901 -5.50896 115.349 -6.31396 115.37V116.616C-5.51596 116.637 -5.23596 117.085 -5.23596 117.505C-5.23596 118.17 -5.32696 118.534 -5.35496 119.185C-5.35496 119.29 -5.35496 119.395 -5.35496 119.514C-5.35496 119.598 -5.35496 119.682 -5.34796 119.752C-5.32696 120.837 -4.86496 121.306 -3.52796 121.306C-2.65296 121.306 -2.28197 121.18 -1.50497 121.18C-1.07797 121.18 -0.629965 121.453 -0.608965 122.244H0.637035C0.658035 121.453 1.11303 121.18 1.53303 121.18C2.31003 121.18 2.68104 121.306 3.55604 121.306C4.92804 121.306 5.37604 121.096 5.37604 119.955V119.185H5.35504C5.32704 118.541 5.23603 118.17 5.23603 117.505C5.23603 117.085 5.50904 116.637 6.31404 116.616V115.37C5.51604 115.349 5.23603 114.901 5.23603 114.481ZM4.87203 116V116.021C4.20703 116.168 3.87103 116.518 3.87103 117.505C3.87103 118.226 4.22804 118.492 4.22804 119.402C4.22804 119.486 4.21404 119.563 4.20004 119.647C4.11604 119.822 3.92003 119.885 3.48603 119.885C2.84903 119.885 2.26103 119.836 1.54003 119.836C0.539035 119.836 0.189035 120.172 0.042035 120.823H-0.00696479C-0.153965 120.165 -0.503965 119.836 -1.50497 119.836C-2.22596 119.836 -2.81396 119.885 -3.45096 119.885C-4.04596 119.885 -4.19996 119.773 -4.22096 119.402C-4.22096 118.499 -3.86396 118.226 -3.86396 117.512C-3.86396 116.525 -4.19996 116.175 -4.86496 116.028V115.965C-4.19996 115.818 -3.86396 115.468 -3.86396 114.481C-3.86396 113.767 -4.21396 113.494 -4.22096 112.598C-4.19996 112.227 -4.04596 112.115 -3.45096 112.115C-2.81396 112.115 -2.22596 112.164 -1.50497 112.164C-0.503965 112.164 -0.153965 111.828 -0.00696479 111.177H0.042035C0.189035 111.835 0.539035 112.164 1.54003 112.164C2.26103 112.164 2.84903 112.115 3.48603 112.115C3.92703 112.115 4.12304 112.178 4.20704 112.36C4.22104 112.437 4.23503 112.507 4.23503 112.584C4.23503 113.487 3.87803 113.76 3.87803 114.481C3.87803 115.468 4.21403 115.818 4.87903 115.965V116H4.87203ZM-1.51896 115.377L-2.49897 114.404L-1.60997 113.522L-0.629964 114.495V113.123H0.630035V114.495L1.61003 113.522L2.49904 114.404L1.51904 115.377H2.90504V116.623H1.51904L2.49904 117.596L1.61003 118.478L0.630035 117.505V118.877H-0.629964V117.505L-1.60997 118.478L-2.49897 117.596L-1.51896 116.623H-2.90496V115.377H-1.51896Z" fill="white" fill-opacity="0.05"/>
</g>
<g clip-path="url(#clip3_253_9095)">
<path d="M63.236 114.481C63.236 113.823 63.327 113.452 63.355 112.815H63.376V112.045C63.376 110.904 62.928 110.694 61.556 110.694C60.681 110.694 60.31 110.82 59.533 110.82C59.106 110.82 58.658 110.547 58.637 109.756H57.391C57.363 110.547 56.915 110.82 56.495 110.82C55.718 110.82 55.347 110.694 54.472 110.694C53.135 110.694 52.68 111.163 52.652 112.234C52.652 112.311 52.645 112.395 52.645 112.479C52.645 112.598 52.645 112.703 52.645 112.801V112.815C52.673 113.452 52.764 113.823 52.764 114.481C52.764 114.901 52.491 115.349 51.686 115.37V116.616C52.484 116.637 52.764 117.085 52.764 117.505C52.764 118.17 52.673 118.534 52.645 119.185C52.645 119.29 52.645 119.395 52.645 119.514C52.645 119.598 52.645 119.682 52.652 119.752C52.673 120.837 53.135 121.306 54.472 121.306C55.347 121.306 55.718 121.18 56.495 121.18C56.922 121.18 57.37 121.453 57.391 122.244H58.637C58.658 121.453 59.113 121.18 59.533 121.18C60.31 121.18 60.681 121.306 61.556 121.306C62.928 121.306 63.376 121.096 63.376 119.955V119.185H63.355C63.327 118.541 63.236 118.17 63.236 117.505C63.236 117.085 63.509 116.637 64.314 116.616V115.37C63.516 115.349 63.236 114.901 63.236 114.481ZM62.872 116V116.021C62.207 116.168 61.871 116.518 61.871 117.505C61.871 118.226 62.228 118.492 62.228 119.402C62.228 119.486 62.214 119.563 62.2 119.647C62.116 119.822 61.92 119.885 61.486 119.885C60.849 119.885 60.261 119.836 59.54 119.836C58.539 119.836 58.189 120.172 58.042 120.823H57.993C57.846 120.165 57.496 119.836 56.495 119.836C55.774 119.836 55.186 119.885 54.549 119.885C53.954 119.885 53.8 119.773 53.779 119.402C53.779 118.499 54.136 118.226 54.136 117.512C54.136 116.525 53.8 116.175 53.135 116.028V115.965C53.8 115.818 54.136 115.468 54.136 114.481C54.136 113.767 53.786 113.494 53.779 112.598C53.8 112.227 53.954 112.115 54.549 112.115C55.186 112.115 55.774 112.164 56.495 112.164C57.496 112.164 57.846 111.828 57.993 111.177H58.042C58.189 111.835 58.539 112.164 59.54 112.164C60.261 112.164 60.849 112.115 61.486 112.115C61.927 112.115 62.123 112.178 62.207 112.36C62.221 112.437 62.235 112.507 62.235 112.584C62.235 113.487 61.878 113.76 61.878 114.481C61.878 115.468 62.214 115.818 62.879 115.965V116H62.872ZM56.481 115.377L55.501 114.404L56.39 113.522L57.37 114.495V113.123H58.63V114.495L59.61 113.522L60.499 114.404L59.519 115.377H60.905V116.623H59.519L60.499 117.596L59.61 118.478L58.63 117.505V118.877H57.37V117.505L56.39 118.478L55.501 117.596L56.481 116.623H55.095V115.377H56.481Z" fill="white" fill-opacity="0.05"/>
</g>
</g>
<g clip-path="url(#clip4_253_9095)">
<path d="M34.236 56.481C34.236 55.823 34.327 55.452 34.355 54.815H34.376V54.045C34.376 52.904 33.928 52.694 32.556 52.694C31.681 52.694 31.31 52.82 30.533 52.82C30.106 52.82 29.658 52.547 29.637 51.756H28.391C28.363 52.547 27.915 52.82 27.495 52.82C26.718 52.82 26.347 52.694 25.472 52.694C24.135 52.694 23.68 53.163 23.652 54.234C23.652 54.311 23.645 54.395 23.645 54.479C23.645 54.598 23.645 54.703 23.645 54.801V54.815C23.673 55.452 23.764 55.823 23.764 56.481C23.764 56.901 23.491 57.349 22.686 57.37V58.616C23.484 58.637 23.764 59.085 23.764 59.505C23.764 60.17 23.673 60.534 23.645 61.185C23.645 61.29 23.645 61.395 23.645 61.514C23.645 61.598 23.645 61.682 23.652 61.752C23.673 62.837 24.135 63.306 25.472 63.306C26.347 63.306 26.718 63.18 27.495 63.18C27.922 63.18 28.37 63.453 28.391 64.244H29.637C29.658 63.453 30.113 63.18 30.533 63.18C31.31 63.18 31.681 63.306 32.556 63.306C33.928 63.306 34.376 63.096 34.376 61.955V61.185H34.355C34.327 60.541 34.236 60.17 34.236 59.505C34.236 59.085 34.509 58.637 35.314 58.616V57.37C34.516 57.349 34.236 56.901 34.236 56.481ZM33.872 58V58.021C33.207 58.168 32.871 58.518 32.871 59.505C32.871 60.226 33.228 60.492 33.228 61.402C33.228 61.486 33.214 61.563 33.2 61.647C33.116 61.822 32.92 61.885 32.486 61.885C31.849 61.885 31.261 61.836 30.54 61.836C29.539 61.836 29.189 62.172 29.042 62.823H28.993C28.846 62.165 28.496 61.836 27.495 61.836C26.774 61.836 26.186 61.885 25.549 61.885C24.954 61.885 24.8 61.773 24.779 61.402C24.779 60.499 25.136 60.226 25.136 59.512C25.136 58.525 24.8 58.175 24.135 58.028V57.965C24.8 57.818 25.136 57.468 25.136 56.481C25.136 55.767 24.786 55.494 24.779 54.598C24.8 54.227 24.954 54.115 25.549 54.115C26.186 54.115 26.774 54.164 27.495 54.164C28.496 54.164 28.846 53.828 28.993 53.177H29.042C29.189 53.835 29.539 54.164 30.54 54.164C31.261 54.164 31.849 54.115 32.486 54.115C32.927 54.115 33.123 54.178 33.207 54.36C33.221 54.437 33.235 54.507 33.235 54.584C33.235 55.487 32.878 55.76 32.878 56.481C32.878 57.468 33.214 57.818 33.879 57.965V58H33.872ZM27.481 57.377L26.501 56.404L27.39 55.522L28.37 56.495V55.123H29.63V56.495L30.61 55.522L31.499 56.404L30.519 57.377H31.905V58.623H30.519L31.499 59.596L30.61 60.478L29.63 59.505V60.877H28.37V59.505L27.39 60.478L26.501 59.596L27.481 58.623H26.095V57.377H27.481Z" fill="white" fill-opacity="0.05"/>
</g>
<defs>
<clipPath id="clip0_253_9095">
<rect width="14" height="14" fill="white" transform="translate(-7 -7)"/>
</clipPath>
<clipPath id="clip1_253_9095">
<rect width="14" height="14" fill="white" transform="translate(51 -7)"/>
</clipPath>
<clipPath id="clip2_253_9095">
<rect width="14" height="14" fill="white" transform="translate(-7 109)"/>
</clipPath>
<clipPath id="clip3_253_9095">
<rect width="14" height="14" fill="white" transform="translate(51 109)"/>
</clipPath>
<clipPath id="clip4_253_9095">
<rect width="14" height="14" fill="white" transform="translate(22 51)"/>
</clipPath>
</defs>
</svg>
