<svg width="200" height="46" viewBox="0 0 200 46" fill="none" xmlns="http://www.w3.org/2000/svg">
<path d="M64.37 25C64.37 19.7 68.19 15.61 73.62 15.61C76.21 15.61 78.56 16.58 80.18 18.28L77.73 20.73C76.8 19.59 75.33 18.89 73.64 18.89C70.26 18.89 68.04 21.55 68.04 25.01C68.04 28.47 70.39 31.12 73.71 31.12C75.37 31.12 76.88 30.4 77.81 29.23L80.26 31.68C78.65 33.39 76.27 34.36 73.65 34.36C68.12 34.36 64.36 30.26 64.36 25.01L64.37 25Z" fill="white"/>
<path d="M91.09 30.74H87.42C86.53 30.74 86.05 30.23 86.05 29.27V9.37H78.32V12.31H82.47V29.48C82.47 32.28 84.01 33.92 86.7 33.92H93.73C93.27 33.79 91.75 32.24 91.09 30.74Z" fill="white"/>
<path d="M92.43 25.04C92.43 19.37 96.25 15.62 101.3 15.62C106.9 15.62 110.08 19.72 110.08 24.81V26.14H96.01C96.14 29.25 98.23 31.36 101.47 31.36C103.73 31.36 105.71 30.27 106.42 28.53H109.91C108.95 31.98 105.81 34.37 101.41 34.37C96.05 34.37 92.43 30.41 92.43 25.05V25.04ZM106.49 23.36C106.25 20.35 104.1 18.61 101.3 18.61C98.5 18.61 96.35 20.56 96.08 23.36H106.49Z" fill="white"/>
<path d="M112.08 25.04C112.08 19.51 115.6 15.62 120.55 15.62C124 15.62 125.85 17.74 126.42 18.66H126.63V16.07H130.22V33.93H126.73V31.4H126.49C126.04 32.08 124.3 34.37 120.75 34.37C115.63 34.37 112.08 30.58 112.08 25.05V25.04ZM126.73 25C126.73 21.14 124.38 18.88 121.2 18.88C118.02 18.88 115.74 21.41 115.74 25C115.74 28.59 117.96 31.11 121.27 31.11C124.58 31.11 126.73 28.38 126.73 25Z" fill="white"/>
<path d="M140.51 25.1V30.73H148.06V33.91H132.83V30.73H136.93V19.41H132.8V16.05H140.38V19.16H140.62C141.17 17.73 142.84 16.02 145.4 16.02H148.44V19.42H145.3C141.97 19.42 140.52 21.79 140.52 25.1H140.51Z" fill="white"/>
<path d="M155.03 19.42H150.85V16.06H155.06V15.39C155.06 11.67 157.66 9.42001 161.41 9.42001H163.29V12.46H161.61C159.46 12.46 158.57 13.72 158.57 15.5V16.06H166.68L164.6 19.42H158.61V33.92H155.02V19.42H155.03Z" fill="white"/>
<path d="M180.94 30.74L178.55 33.92H167.12V30.74H171.59V19.42H167.44L169.52 16.06H175.17V30.74H180.94ZM171.04 10.97C171.04 9.67 172.03 8.72 173.4 8.72C174.77 8.72 175.75 9.68 175.75 10.97C175.75 12.34 174.79 13.26 173.4 13.26C172.01 13.26 171.04 12.34 171.04 10.97Z" fill="white"/>
<path d="M200 33.91L193.18 24.85L199.52 16.41H194.99L190.92 21.83L186.84 16.41H182.31L188.65 24.85L181.84 33.91H186.37L190.92 27.86L195.47 33.91H200Z" fill="white"/>
<path d="M4 37.58C4 33.9 4.53 32.32 4.53 29.05C4.53 27.26 3.37 25.37 0 25.26V20C3.37 19.89 4.53 18 4.53 16.21C4.53 12.95 4 11.37 4 7.68001C4 1.90001 6.1 0.0100098 10.95 0.0100098H24.62V4.75001H12.58C10.63 4.75001 10.06 5.28001 10.06 8.01001C10.06 10.74 10.27 13.17 10.27 16.22C10.27 20.43 8.85 21.9 6.06 22.53V22.74C8.85 23.37 10.27 24.84 10.27 29.05C10.27 32.1 10.06 34.58 10.06 37.26C10.06 39.94 10.64 40.52 12.58 40.52H24.62V45.26H9.74C4.9 45.26 3.99 43.36 3.99 37.58H4Z" fill="#FF214F"/>
<path d="M50.46 37.58C50.46 33.9 49.93 32.32 49.93 29.05C49.93 27.26 51.09 25.37 54.46 25.26V20C51.09 19.89 49.93 18 49.93 16.21C49.93 12.95 50.46 11.37 50.46 7.68C50.46 1.89 48.36 0 43.51 0H29.84V4.74H41.88C43.83 4.74 44.4 5.27 44.4 8C44.4 10.73 44.19 13.16 44.19 16.21C44.19 20.42 45.61 21.89 48.4 22.52V22.73C45.61 23.36 44.19 24.83 44.19 29.04C44.19 32.09 44.4 34.57 44.4 37.25C44.4 39.93 43.82 40.51 41.88 40.51H29.84V45.25H44.72C49.56 45.25 50.47 43.35 50.47 37.57L50.46 37.58Z" fill="#FF214F"/>
<path d="M40.34 19.98H33.65L38.38 15.25L34.64 11.5L29.9 16.24V9.54001H24.61V16.24L19.87 11.5L16.13 15.25L20.86 19.98H14.17V25.28H20.86L16.13 30.01L19.87 33.75L24.61 29.02V35.72H29.9V29.02L34.64 33.75L38.38 30.01L33.65 25.28H40.34V19.98Z" fill="#FF214F"/>
</svg>
